<svg width="32" height="33" viewBox="0 0 32 33" fill="none" xmlns="http://www.w3.org/2000/svg">
<path fill-rule="evenodd" clip-rule="evenodd" d="M4.54289 11.2929C6.92672 8.90907 10.6674 6.5 16 6.5C21.3326 6.5 25.0733 8.90907 27.4571 11.2929C28.6461 12.4819 29.5035 13.6692 30.065 14.5609C30.3462 15.0076 30.5546 15.3823 30.6944 15.6493C30.7644 15.7828 30.8173 15.8896 30.8536 15.9651C30.8718 16.0029 30.8859 16.0329 30.8959 16.0545L30.9079 16.0806L30.9116 16.0889L30.9129 16.0918L30.9134 16.0929C30.9136 16.0934 30.9138 16.0939 30 16.5C30.9138 16.9061 30.9136 16.9066 30.9134 16.9071L30.9129 16.9082L30.9116 16.9111L30.9079 16.9194L30.8959 16.9455C30.8859 16.9671 30.8718 16.9971 30.8536 17.0349C30.8173 17.1104 30.7644 17.2172 30.6944 17.3507C30.5546 17.6177 30.3462 17.9924 30.065 18.4391C29.5035 19.3308 28.6461 20.5181 27.4571 21.7071C25.0733 24.0909 21.3326 26.5 16 26.5C10.6674 26.5 6.92672 24.0909 4.54289 21.7071C3.35387 20.5181 2.49647 19.3308 1.93502 18.4391C1.6538 17.9924 1.4454 17.6177 1.30557 17.3507C1.23563 17.2172 1.18273 17.1104 1.14636 17.0349C1.12817 16.9971 1.11411 16.9671 1.10411 16.9455L1.09213 16.9194L1.08841 16.9111L1.08711 16.9082L1.0866 16.9071C1.08639 16.9066 1.08619 16.9061 2 16.5C1.08619 16.0939 1.08639 16.0934 1.0866 16.0929L1.08711 16.0918L1.08841 16.0889L1.09213 16.0806L1.10411 16.0545C1.11411 16.0329 1.12817 16.0029 1.14636 15.9651C1.18273 15.8896 1.23563 15.7828 1.30557 15.6493C1.4454 15.3823 1.6538 15.0076 1.93502 14.5609C2.49647 13.6692 3.35387 12.4819 4.54289 11.2929ZM2 16.5L1.08619 16.0939C0.971271 16.3524 0.971271 16.6476 1.08619 16.9061L2 16.5ZM3.11811 16.5C3.23576 16.7204 3.4047 17.0196 3.62748 17.3734C4.12853 18.1692 4.89613 19.2319 5.95711 20.2929C8.07328 22.4091 11.3326 24.5 16 24.5C20.6674 24.5 23.9267 22.4091 26.0429 20.2929C27.1039 19.2319 27.8715 18.1692 28.3725 17.3734C28.5953 17.0196 28.7642 16.7204 28.8819 16.5C28.7642 16.2796 28.5953 15.9804 28.3725 15.6266C27.8715 14.8308 27.1039 13.7681 26.0429 12.7071C23.9267 10.5909 20.6674 8.5 16 8.5C11.3326 8.5 8.07328 10.5909 5.95711 12.7071C4.89613 13.7681 4.12853 14.8308 3.62748 15.6266C3.4047 15.9804 3.23576 16.2796 3.11811 16.5ZM30 16.5L30.9138 16.9061C31.0287 16.6476 31.0287 16.3524 30.9138 16.0939L30 16.5Z" fill="black"/>
<path fill-rule="evenodd" clip-rule="evenodd" d="M16 12.5C13.7909 12.5 12 14.2909 12 16.5C12 18.7091 13.7909 20.5 16 20.5C18.2091 20.5 20 18.7091 20 16.5C20 14.2909 18.2091 12.5 16 12.5ZM10 16.5C10 13.1863 12.6863 10.5 16 10.5C19.3137 10.5 22 13.1863 22 16.5C22 19.8137 19.3137 22.5 16 22.5C12.6863 22.5 10 19.8137 10 16.5Z" fill="black"/>
</svg>
