<svg width="32" height="32" viewBox="0 0 32 32" fill="none" xmlns="http://www.w3.org/2000/svg">
<rect width="32" height="32" rx="16" fill="#84EC00" fill-opacity="0.1"/>
<path d="M15.0944 18.3784C14.9444 18.3784 14.8019 18.3184 14.6969 18.2134L12.8819 16.3984C12.6644 16.1809 12.6644 15.8209 12.8819 15.6034C13.0994 15.3859 13.4594 15.3859 13.6769 15.6034L15.0944 17.0209L18.3194 13.7959C18.5369 13.5784 18.8969 13.5784 19.1144 13.7959C19.3319 14.0134 19.3319 14.3734 19.1144 14.5909L15.4919 18.2134C15.3869 18.3184 15.2444 18.3784 15.0944 18.3784Z" fill="#84EC00"/>
<path d="M16.0002 24.0625C15.5277 24.0625 15.0552 23.905 14.6877 23.59L13.5027 22.57C13.3827 22.465 13.0827 22.36 12.9252 22.36H11.6352C10.5252 22.36 9.62516 21.46 9.62516 20.35V19.0675C9.62516 18.91 9.52016 18.6175 9.41516 18.4975L8.40266 17.305C7.78766 16.5775 7.78766 15.43 8.40266 14.7025L9.41516 13.51C9.52016 13.39 9.62516 13.0975 9.62516 12.94V11.65C9.62516 10.54 10.5252 9.64 11.6352 9.64H12.9327C13.0902 9.64 13.3902 9.5275 13.5102 9.43L14.6952 8.41C15.4302 7.78 16.5777 7.78 17.3127 8.41L18.4977 9.43C18.6177 9.535 18.9177 9.64 19.0752 9.64H20.3502C21.4602 9.64 22.3602 10.54 22.3602 11.65V12.925C22.3602 13.0825 22.4727 13.3825 22.5777 13.5025L23.5977 14.6875C24.2277 15.4225 24.2277 16.57 23.5977 17.305L22.5777 18.49C22.4727 18.61 22.3602 18.91 22.3602 19.0675V20.3425C22.3602 21.4525 21.4602 22.3525 20.3502 22.3525H19.0752C18.9177 22.3525 18.6177 22.465 18.4977 22.5625L17.3127 23.5825C16.9452 23.905 16.4727 24.0625 16.0002 24.0625ZM11.6352 10.765C11.1477 10.765 10.7502 11.1625 10.7502 11.65V12.9325C10.7502 13.36 10.5477 13.9075 10.2702 14.23L9.25766 15.4225C8.99516 15.73 8.99516 16.2625 9.25766 16.57L10.2702 17.7625C10.5477 18.0925 10.7502 18.6325 10.7502 19.06V20.3425C10.7502 20.83 11.1477 21.2275 11.6352 21.2275H12.9327C13.3677 21.2275 13.9152 21.43 14.2452 21.715L15.4302 22.735C15.7377 22.9975 16.2777 22.9975 16.5852 22.735L17.7702 21.715C18.1002 21.4375 18.6477 21.2275 19.0827 21.2275H20.3577C20.8452 21.2275 21.2427 20.83 21.2427 20.3425V19.0675C21.2427 18.6325 21.4452 18.085 21.7302 17.755L22.7502 16.57C23.0127 16.2625 23.0127 15.7225 22.7502 15.415L21.7302 14.23C21.4452 13.9 21.2427 13.3525 21.2427 12.9175V11.65C21.2427 11.1625 20.8452 10.765 20.3577 10.765H19.0827C18.6477 10.765 18.1002 10.5625 17.7702 10.2775L16.5852 9.2575C16.2777 8.995 15.7377 8.995 15.4302 9.2575L14.2452 10.285C13.9152 10.5625 13.3602 10.765 12.9327 10.765H11.6352Z" fill="#84EC00"/>
</svg>
