<svg width="42" height="41" viewBox="0 0 42 41" fill="none" xmlns="http://www.w3.org/2000/svg">
<g clip-path="url(#clip0_1819_9420)">
<path d="M41.5 20.6253C41.5 9.23424 32.3218 0 21 0C9.67815 0 0.5 9.23424 0.5 20.6253C0.5 30.92 7.99655 39.4527 17.7969 41V26.5873H12.5918V20.6253H17.7969V16.0813C17.7969 10.9121 20.8574 8.05675 25.54 8.05675C27.7829 8.05675 30.1289 8.45959 30.1289 8.45959V13.5353H27.5439C24.9973 13.5353 24.2031 15.1252 24.2031 16.7563V20.6253H29.8887L28.9798 26.5873H24.2031V41C34.0034 39.4527 41.5 30.92 41.5 20.6253Z" fill="#1877F2"/>
</g>
<defs>
<clipPath id="clip0_1819_9420">
<rect width="41" height="41" fill="white" transform="translate(0.5)"/>
</clipPath>
</defs>
</svg>
