<svg width="215" height="33" viewBox="0 0 215 33" fill="none" xmlns="http://www.w3.org/2000/svg">
<g clip-path="url(#clip0_310_9597)">
<path d="M38.9112 31.8665C47.5379 31.8665 54.5313 24.8326 54.5313 16.1559C54.5313 7.47919 47.5379 0.445313 38.9112 0.445313C30.2844 0.445313 23.291 7.47919 23.291 16.1559C23.291 24.8326 30.2844 31.8665 38.9112 31.8665Z" fill="#0320F8"/>
<path d="M7.72852 16.1554C7.72852 24.8323 14.7199 31.866 23.3487 31.866L23.3487 0.445313C14.7221 0.445313 7.72852 7.47956 7.72852 16.1554Z" fill="#0320F8"/>
<path d="M0 16.1545C0 21.9698 3.14343 27.0463 7.81035 29.7632L7.81035 2.54688C3.14127 5.26315 0 10.3402 0 16.1545Z" fill="#0320F8"/>
<path d="M214.677 2.9262C214.488 2.46889 214.206 2.05597 213.851 1.71332C213.495 1.37667 213.077 1.11229 212.621 0.934591C211.654 0.558261 210.582 0.558261 209.615 0.934591C209.158 1.11187 208.74 1.37628 208.383 1.71332C208.027 2.05533 207.747 2.46847 207.559 2.9262C207.355 3.41587 207.253 3.94226 207.257 4.47329C207.257 5.21161 207.43 5.87383 207.776 6.45998C208.108 7.03317 208.592 7.50206 209.173 7.81429C209.774 8.12652 210.441 8.28942 211.117 8.28942C211.793 8.28942 212.459 8.12652 213.06 7.81429C213.642 7.50172 214.127 7.03297 214.46 6.45998C214.808 5.8742 214.982 5.21197 214.982 4.47329C214.986 3.94203 214.883 3.41548 214.677 2.9262ZM213.921 5.74896C213.783 6.11798 213.57 6.45377 213.295 6.7347C213.02 7.01564 212.69 7.23551 212.326 7.38015C211.944 7.53556 211.535 7.61386 211.122 7.6106C210.714 7.61319 210.309 7.53489 209.93 7.38015C209.57 7.23474 209.242 7.01888 208.965 6.74504C208.686 6.46099 208.467 6.12192 208.323 5.74896C208.163 5.3431 208.083 4.9099 208.087 4.47329C208.083 4.04585 208.163 3.62185 208.323 3.226C208.468 2.86177 208.687 2.53188 208.965 2.25723C209.243 1.98914 209.571 1.77937 209.93 1.64014C210.372 1.46991 210.845 1.39581 211.318 1.42273C211.79 1.44965 212.252 1.57697 212.672 1.79633C213.128 2.04465 213.504 2.41833 213.756 2.87377C214.02 3.34014 214.151 3.87331 214.151 4.47329C214.156 4.90943 214.078 5.34244 213.921 5.74896Z" fill="#0320F8"/>
<path d="M212.595 4.19488C212.716 4.00686 212.78 3.78687 212.778 3.56249C212.786 3.34403 212.743 3.12669 212.654 2.92739C212.572 2.7595 212.435 2.62476 212.267 2.54513C212.083 2.45552 211.886 2.3951 211.684 2.36601C211.417 2.32981 211.149 2.31339 210.88 2.31686H209.647V6.35796H210.477V4.81633H211.245L212.061 6.35796L212.971 6.35796L212.045 4.63722C212.268 4.54773 212.459 4.3938 212.595 4.19488ZM211.736 4.02668C211.595 4.12643 211.369 4.1763 211.058 4.1763H210.478V2.9749H211.014C211.315 2.9749 211.546 3.01841 211.707 3.10542C211.868 3.19243 211.948 3.34789 211.949 3.57179C211.949 3.77493 211.878 3.92601 211.736 4.02504V4.02668Z" fill="#0320F8"/>
<path d="M76.7482 14.0575L74.1028 13.5415C69.5806 12.5956 68.1725 11.4778 68.1725 9.02743C68.1725 6.70598 69.9643 5.24463 73.6334 5.24463C78.457 5.24463 80.1187 7.09317 80.3322 10.3605H85.921C85.708 4.5997 82.0812 0.558594 73.5484 0.558594C66.2523 0.558594 62.2846 4.12678 62.2846 9.19946C62.2846 14.7451 66.1673 17.3674 72.0552 18.4831L74.615 18.9991C79.2656 19.945 80.8438 21.0197 80.8438 23.4269C80.8438 26.307 78.6678 27.8546 74.7001 27.8546C70.4765 27.8546 67.275 26.5653 67.191 21.7503H61.5166C61.5594 28.8004 66.4231 32.5406 74.5293 32.5406C82.124 32.5406 86.8169 29.1876 86.8169 23.126C86.8169 18.2701 83.9157 15.4763 76.7482 14.0575Z" fill="#0320F8"/>
<path d="M99.1354 9.15625C92.6073 9.15625 88.2559 13.7981 88.2559 20.7635C88.2559 27.8567 92.7358 32.3707 99.2205 32.3707C104.511 32.3707 108.351 29.4906 109.46 24.9766L104.298 24.9766C103.485 26.954 101.823 28.1576 99.2633 28.1576C96.1486 28.1576 93.9303 26.3954 93.546 22.44L110.015 22.44V21.1507C110.015 14.1 105.876 9.15625 99.1354 9.15625ZM93.5889 18.6583C94.101 15.0044 96.2342 13.3705 99.0926 13.3705C102.29 13.3705 104.213 15.5199 104.639 18.6583H93.5889Z" fill="#0320F8"/>
<path d="M131.258 15.8186C131.258 11.8206 128.657 9.15625 122.085 9.15625C115.216 9.15625 112.485 12.0369 112.187 16.7224H117.478C117.691 14.0143 118.971 13.1974 122.043 13.1974C125.157 13.1974 126.053 14.2295 126.053 15.9486C126.053 17.5825 124.987 18.2274 122.938 18.4852L119.611 18.7861C113.381 19.3868 111.163 22.008 111.163 25.7073C111.163 30.0061 114.406 32.3696 119.099 32.3696C122.341 32.3696 124.73 31.2092 126.181 29.1477C126.266 30.2224 126.437 31.254 126.777 31.8558H132.153C131.557 30.9962 131.257 29.2345 131.257 27.6432L131.258 15.8186ZM126.055 23.0817C126.055 26.9508 123.237 28.4984 120.381 28.4984C117.906 28.4984 116.669 27.3379 116.669 25.4894C116.669 23.7266 117.65 22.6497 120.637 22.3078L123.538 21.9638C124.69 21.8349 125.5 21.5772 126.055 21.0611V23.0817Z" fill="#0320F8"/>
<path d="M144.084 27.8567C140.969 27.8567 138.708 25.6216 138.708 20.7635C138.708 15.9054 140.884 13.6703 144.084 13.6703C146.473 13.6703 148.435 14.917 148.947 17.6682L154.323 17.6682C153.683 12.4667 149.843 9.15625 144.084 9.15625C137.513 9.15625 133.204 13.6703 133.204 20.7635C133.204 27.8567 137.556 32.3707 144.084 32.3707C149.715 32.3707 153.811 29.0177 154.408 23.601L149.033 23.601C148.606 26.5243 146.515 27.8567 144.084 27.8567Z" fill="#0320F8"/>
<path d="M161.828 1.24609L156.452 1.24609V31.8547H161.828V1.24609Z" fill="#0320F8"/>
<path d="M179.219 22.0944C179.219 26.0492 176.659 27.6826 174.312 27.6826C171.539 27.6826 170.174 26.3069 170.174 23.47V9.67016H164.798V24.3727C164.798 29.6605 167.913 32.3686 172.478 32.3686C175.635 32.3686 177.938 30.7778 179.389 28.6284V31.8503H184.592V9.66797L179.216 9.66797L179.219 22.0944Z" fill="#0320F8"/>
<path d="M199.86 9.1541C196.788 9.1541 194.526 10.4008 193.031 12.5503V1.24609L187.655 1.24609V31.8542H192.818V28.6732C194.311 30.9946 196.657 32.3702 199.858 32.3702C205.916 32.3702 209.713 27.8136 209.713 20.763C209.713 13.7123 205.918 9.1541 199.86 9.1541ZM198.58 27.8955C195.081 27.8955 192.905 25.4452 192.905 20.7592C192.905 16.0731 195.081 13.6228 198.58 13.6228C202.078 13.6228 204.254 15.9016 204.254 20.5871C204.254 25.2726 202.078 27.8955 198.58 27.8955Z" fill="#0320F8"/>
</g>
<defs>
<clipPath id="clip0_310_9597">
<rect width="215" height="32.1104" fill="white" transform="translate(0 0.445312)"/>
</clipPath>
</defs>
</svg>
