<svg width="24" height="24" viewBox="0 0 24 24" fill="none" xmlns="http://www.w3.org/2000/svg">
<path d="M12.0004 22.7614C10.9104 22.7614 9.83039 22.4414 8.98039 21.8114L4.68039 18.6014C3.54039 17.7514 2.65039 15.9714 2.65039 14.5614V7.12141C2.65039 5.58141 3.78039 3.94141 5.23039 3.40141L10.2204 1.53141C11.2104 1.16141 12.7704 1.16141 13.7604 1.53141L18.7504 3.40141C20.2004 3.94141 21.3304 5.58141 21.3304 7.12141V14.5514C21.3304 15.9714 20.4404 17.7414 19.3004 18.5914L15.0004 21.8014C14.1704 22.4414 13.0904 22.7614 12.0004 22.7614ZM10.7504 2.94141L5.76039 4.81141C4.91039 5.13141 4.16039 6.21141 4.16039 7.13141V14.5614C4.16039 15.5114 4.83039 16.8414 5.58039 17.4014L9.88039 20.6114C11.0304 21.4714 12.9704 21.4714 14.1304 20.6114L18.4304 17.4014C19.1904 16.8314 19.8504 15.5114 19.8504 14.5614V7.12141C19.8504 6.21141 19.1004 5.13141 18.2504 4.80141L13.2604 2.93141C12.5804 2.69141 11.4204 2.69141 10.7504 2.94141Z" fill="white"/>
<path d="M10.6602 14.2311C10.4702 14.2311 10.2802 14.1611 10.1302 14.0111L8.52023 12.4011C8.23023 12.1111 8.23023 11.6311 8.52023 11.3411C8.81023 11.0511 9.29023 11.0511 9.58023 11.3411L10.6602 12.4211L14.4302 8.65109C14.7202 8.36109 15.2002 8.36109 15.4902 8.65109C15.7802 8.94109 15.7802 9.42109 15.4902 9.71109L11.1902 14.0111C11.0402 14.1611 10.8502 14.2311 10.6602 14.2311Z" fill="white"/>
</svg>
