<svg width="18" height="12" viewBox="0 0 18 12" fill="none" xmlns="http://www.w3.org/2000/svg">
<path d="M3.87835 2.76419C6.70642 -0.00473012 11.2916 -0.00473012 14.1197 2.76419L14.4601 3.09743C14.6015 3.23588 14.6015 3.46035 14.4601 3.59879L13.2958 4.73875C13.2251 4.80798 13.1104 4.80798 13.0397 4.73875L12.5713 4.28017C10.5984 2.3485 7.39965 2.3485 5.42672 4.28017L4.92512 4.77127C4.85442 4.8405 4.73979 4.8405 4.66909 4.77127L3.50477 3.63131C3.36337 3.49287 3.36337 3.2684 3.50477 3.12996L3.87835 2.76419ZM16.5276 5.12175L17.5639 6.13632C17.7053 6.27477 17.7053 6.49923 17.5639 6.63768L12.8914 11.2125C12.75 11.351 12.5207 11.351 12.3793 11.2125C12.3793 11.2125 12.3793 11.2125 12.3793 11.2125L9.06306 7.96562C9.02771 7.93101 8.9704 7.93101 8.93505 7.96562C8.93505 7.96562 8.93505 7.96562 8.93505 7.96562L5.61887 11.2125C5.47747 11.351 5.2482 11.351 5.1068 11.2125C5.1068 11.2125 5.1068 11.2125 5.1068 11.2125L0.434178 6.63762C0.292774 6.49917 0.292774 6.27471 0.434178 6.13626L1.47042 5.12169C1.61183 4.98325 1.84109 4.98325 1.98249 5.12169L5.29879 8.36863C5.33414 8.40324 5.39145 8.40324 5.4268 8.36863C5.4268 8.36863 5.4268 8.36863 5.4268 8.36863L8.74294 5.12169C8.88434 4.98324 9.1136 4.98324 9.255 5.12168C9.255 5.12168 9.25501 5.12168 9.255 5.12168L12.5713 8.36862C12.6067 8.40324 12.664 8.40324 12.6993 8.36862L16.0156 5.12175C16.157 4.9833 16.3862 4.9833 16.5276 5.12175Z" fill="#3B99FC"/>
</svg>
