<svg width="16" height="17" viewBox="0 0 16 17" fill="none" xmlns="http://www.w3.org/2000/svg">
<path d="M7.40065 15.6654H4.60065C1.99398 15.6654 0.833984 14.5054 0.833984 11.8987V9.0987C0.833984 6.49203 1.99398 5.33203 4.60065 5.33203H7.40065C10.0073 5.33203 11.1673 6.49203 11.1673 9.0987V11.8987C11.1673 14.5054 10.0073 15.6654 7.40065 15.6654ZM4.60065 6.33203C2.53398 6.33203 1.83398 7.03203 1.83398 9.0987V11.8987C1.83398 13.9654 2.53398 14.6654 4.60065 14.6654H7.40065C9.46732 14.6654 10.1673 13.9654 10.1673 11.8987V9.0987C10.1673 7.03203 9.46732 6.33203 7.40065 6.33203H4.60065Z" fill="#0320F8"/>
<path d="M11.4007 11.6654H10.6673C10.394 11.6654 10.1673 11.4387 10.1673 11.1654V9.0987C10.1673 7.03203 9.46732 6.33203 7.40065 6.33203H5.33398C5.06065 6.33203 4.83398 6.10536 4.83398 5.83203V5.0987C4.83398 2.49203 5.99398 1.33203 8.60065 1.33203H11.4007C14.0073 1.33203 15.1673 2.49203 15.1673 5.0987V7.8987C15.1673 10.5054 14.0073 11.6654 11.4007 11.6654ZM11.1673 10.6654H11.4007C13.4673 10.6654 14.1673 9.96537 14.1673 7.8987V5.0987C14.1673 3.03203 13.4673 2.33203 11.4007 2.33203H8.60065C6.53398 2.33203 5.83398 3.03203 5.83398 5.0987V5.33203H7.40065C10.0073 5.33203 11.1673 6.49203 11.1673 9.0987V10.6654Z" fill="#0320F8"/>
</svg>
