<svg width="24" height="24" viewBox="0 0 24 24" fill="none" xmlns="http://www.w3.org/2000/svg">
<rect width="24" height="24" rx="12" fill="black"/>
<path d="M6.5 14C5.67091 14 5 13.3291 5 12.5C5 11.6709 5.67091 11 6.5 11C7.32909 11 8 11.6709 8 12.5C8 13.3291 7.32909 14 6.5 14Z" fill="white"/>
<path d="M12.5 14C11.6709 14 11 13.3291 11 12.5C11 11.6709 11.6709 11 12.5 11C13.3291 11 14 11.6709 14 12.5C14 13.3291 13.3291 14 12.5 14Z" fill="white"/>
<path d="M18.5 14C17.6709 14 17 13.3291 17 12.5C17 11.6709 17.6709 11 18.5 11C19.3291 11 20 11.6709 20 12.5C20 13.3291 19.3291 14 18.5 14Z" fill="white"/>
</svg>
