<svg width="32" height="32" viewBox="0 0 32 32" fill="none" xmlns="http://www.w3.org/2000/svg">
<rect width="32" height="32" rx="16" fill="#FC8A81" fill-opacity="0.1"/>
<path d="M16.0073 24.0533C15.5348 24.0533 15.0698 23.8958 14.7023 23.5808L13.5173 22.5683C13.3973 22.4633 13.0973 22.3583 12.9398 22.3583H11.6273C10.5173 22.3583 9.61734 21.4583 9.61734 20.3483V19.0658C9.61734 18.9083 9.51234 18.6083 9.41484 18.4958L8.39484 17.2958C7.77984 16.5683 7.77984 15.4283 8.39484 14.6933L9.41484 13.4933C9.51234 13.3808 9.61734 13.0808 9.61734 12.9233V11.6483C9.61734 10.5383 10.5173 9.63828 11.6273 9.63828H12.9248C13.0823 9.63828 13.3748 9.52578 13.5023 9.42078L14.6873 8.40828C15.4223 7.78578 16.5698 7.78578 17.3048 8.40828L18.4898 9.42078C18.6098 9.52578 18.9173 9.63078 19.0748 9.63078H20.3498C21.4598 9.63078 22.3598 10.5308 22.3598 11.6408V12.9158C22.3598 13.0733 22.4723 13.3658 22.5773 13.4933L23.5898 14.6783C24.2198 15.4208 24.2123 16.5683 23.5898 17.2958L22.5773 18.4808C22.4723 18.6083 22.3673 18.9008 22.3673 19.0583V20.3333C22.3673 21.4433 21.4673 22.3433 20.3573 22.3433H19.0823C18.9248 22.3433 18.6323 22.4558 18.4973 22.5608L17.3123 23.5733C16.9448 23.8958 16.4723 24.0533 16.0073 24.0533ZM11.6273 10.7633C11.1398 10.7633 10.7423 11.1608 10.7423 11.6483V12.9233C10.7423 13.3508 10.5473 13.8908 10.2698 14.2208L9.24984 15.4208C8.99484 15.7283 8.99484 16.2683 9.24984 16.5683L10.2623 17.7608C10.5323 18.0683 10.7348 18.6308 10.7348 19.0583V20.3408C10.7348 20.8283 11.1323 21.2258 11.6198 21.2258H12.9248C13.3448 21.2258 13.8998 21.4283 14.2298 21.7058L15.4223 22.7258C15.7298 22.9883 16.2698 22.9883 16.5773 22.7258L17.7623 21.7133C18.0998 21.4283 18.6473 21.2333 19.0673 21.2333H20.3423C20.8298 21.2333 21.2273 20.8358 21.2273 20.3483V19.0733C21.2273 18.6533 21.4298 18.1058 21.7073 17.7683L22.7273 16.5758C22.9898 16.2683 22.9898 15.7283 22.7273 15.4208L21.7148 14.2358C21.4298 13.8983 21.2348 13.3508 21.2348 12.9308V11.6483C21.2348 11.1608 20.8373 10.7633 20.3498 10.7633H19.0748C18.6473 10.7633 18.0923 10.5608 17.7623 10.2833L16.5698 9.26328C16.2623 9.00078 15.7298 9.00078 15.4148 9.26328L14.2373 10.2833C13.8998 10.5608 13.3523 10.7633 12.9248 10.7633H11.6273Z" fill="#FC8A81"/>
<path d="M16 19.6523C15.5875 19.6523 15.25 19.3148 15.25 18.9023C15.25 18.4898 15.58 18.1523 16 18.1523C16.4125 18.1523 16.75 18.4898 16.75 18.9023C16.75 19.3148 16.42 19.6523 16 19.6523Z" fill="#FC8A81"/>
<path d="M16 17.2902C15.6925 17.2902 15.4375 17.0352 15.4375 16.7277V13.0977C15.4375 12.7902 15.6925 12.5352 16 12.5352C16.3075 12.5352 16.5625 12.7902 16.5625 13.0977V16.7202C16.5625 17.0352 16.315 17.2902 16 17.2902Z" fill="#FC8A81"/>
</svg>
