<svg width="18" height="18" viewBox="0 0 18 18" fill="none" xmlns="http://www.w3.org/2000/svg">
<path d="M7.10391 11.4614C6.96141 11.4614 6.81891 11.4089 6.70641 11.2964C6.09141 10.6814 5.75391 9.86391 5.75391 9.00141C5.75391 7.20891 7.20891 5.75391 9.00141 5.75391C9.86391 5.75391 10.6814 6.09141 11.2964 6.70641C11.4014 6.81141 11.4614 6.95391 11.4614 7.10391C11.4614 7.25391 11.4014 7.39641 11.2964 7.50141L7.50141 11.2964C7.38891 11.4089 7.24641 11.4614 7.10391 11.4614ZM9.00141 6.87891C7.83141 6.87891 6.87891 7.83141 6.87891 9.00141C6.87891 9.37641 6.97641 9.73641 7.15641 10.0514L10.0514 7.15641C9.73641 6.97641 9.37641 6.87891 9.00141 6.87891Z" fill="black"/>
<path d="M4.19891 13.8819C4.07141 13.8819 3.93641 13.8369 3.83141 13.7469C3.02891 13.0644 2.30891 12.2244 1.69391 11.2494C0.898906 10.0119 0.898906 7.99438 1.69391 6.74938C3.52391 3.88438 6.18641 2.23438 8.99891 2.23438C10.6489 2.23438 12.2764 2.80438 13.7014 3.87688C13.9489 4.06438 14.0014 4.41687 13.8139 4.66438C13.6264 4.91188 13.2739 4.96438 13.0264 4.77688C11.7964 3.84688 10.4014 3.35938 8.99891 3.35938C6.57641 3.35938 4.25891 4.81438 2.63891 7.35688C2.07641 8.23438 2.07641 9.76437 2.63891 10.6419C3.20141 11.5194 3.84641 12.2769 4.55891 12.8919C4.79141 13.0944 4.82141 13.4469 4.61891 13.6869C4.51391 13.8144 4.35641 13.8819 4.19891 13.8819Z" fill="black"/>
<path d="M8.99992 15.7666C8.00242 15.7666 7.02742 15.5641 6.08992 15.1666C5.80492 15.0466 5.66992 14.7166 5.78992 14.4316C5.90992 14.1466 6.23992 14.0116 6.52492 14.1316C7.31992 14.4691 8.15242 14.6416 8.99242 14.6416C11.4149 14.6416 13.7324 13.1866 15.3524 10.6441C15.9149 9.76659 15.9149 8.23659 15.3524 7.35909C15.1199 6.99159 14.8649 6.63909 14.5949 6.30909C14.3999 6.06909 14.4374 5.71659 14.6774 5.51409C14.9174 5.31909 15.2699 5.34909 15.4724 5.59659C15.7649 5.95659 16.0499 6.34659 16.3049 6.75159C17.0999 7.98909 17.0999 10.0066 16.3049 11.2516C14.4749 14.1166 11.8124 15.7666 8.99992 15.7666Z" fill="black"/>
<path d="M9.51866 12.2023C9.25616 12.2023 9.01616 12.0148 8.96366 11.7448C8.90366 11.4373 9.10616 11.1448 9.41366 11.0923C10.2387 10.9423 10.9287 10.2523 11.0787 9.42727C11.1387 9.11977 11.4312 8.92477 11.7387 8.97727C12.0462 9.03727 12.2487 9.32977 12.1887 9.63727C11.9487 10.9348 10.9137 11.9623 9.62366 12.2023C9.58616 12.1948 9.55616 12.2023 9.51866 12.2023Z" fill="black"/>
<path d="M1.49812 17.0616C1.35562 17.0616 1.21313 17.0091 1.10063 16.8966C0.883125 16.6791 0.883125 16.3191 1.10063 16.1016L6.70312 10.4991C6.92062 10.2816 7.28063 10.2816 7.49813 10.4991C7.71563 10.7166 7.71563 11.0766 7.49813 11.2941L1.89562 16.8966C1.78312 17.0091 1.64062 17.0616 1.49812 17.0616Z" fill="black"/>
<path d="M10.8966 7.66313C10.7541 7.66313 10.6116 7.61063 10.4991 7.49813C10.2816 7.28063 10.2816 6.92062 10.4991 6.70312L16.1016 1.10063C16.3191 0.883125 16.6791 0.883125 16.8966 1.10063C17.1141 1.31812 17.1141 1.67812 16.8966 1.89562L11.2941 7.49813C11.1816 7.61063 11.0391 7.66313 10.8966 7.66313Z" fill="black"/>
</svg>
