<svg width="16" height="16" viewBox="0 0 16 16" fill="none" xmlns="http://www.w3.org/2000/svg">
<path d="M7.9987 15.1654C4.04536 15.1654 0.832031 11.952 0.832031 7.9987C0.832031 4.04536 4.04536 0.832031 7.9987 0.832031C11.952 0.832031 15.1654 4.04536 15.1654 7.9987C15.1654 11.952 11.952 15.1654 7.9987 15.1654ZM7.9987 1.83203C4.5987 1.83203 1.83203 4.5987 1.83203 7.9987C1.83203 11.3987 4.5987 14.1654 7.9987 14.1654C11.3987 14.1654 14.1654 11.3987 14.1654 7.9987C14.1654 4.5987 11.3987 1.83203 7.9987 1.83203Z" fill="black"/>
<path d="M10.4751 10.6211C10.3884 10.6211 10.3017 10.6011 10.2217 10.5478L8.15505 9.31448C7.64172 9.00781 7.26172 8.33448 7.26172 7.74115V5.00781C7.26172 4.73448 7.48839 4.50781 7.76172 4.50781C8.03505 4.50781 8.26172 4.73448 8.26172 5.00781V7.74115C8.26172 7.98115 8.46172 8.33448 8.66839 8.45448L10.7351 9.68781C10.9751 9.82781 11.0484 10.1345 10.9084 10.3745C10.8084 10.5345 10.6417 10.6211 10.4751 10.6211Z" fill="black"/>
</svg>
