<svg width="101" height="101" viewBox="0 0 101 101" fill="none" xmlns="http://www.w3.org/2000/svg">
<path d="M83.2491 72.9129C83.2923 72.3929 83.2923 71.835 83.2923 71.3425V71.332V29.6654C83.2923 25.938 83.1181 22.9299 82.6124 20.5203C82.1055 18.1053 81.2582 16.255 79.8858 14.8799C78.5134 13.5047 76.6644 12.6532 74.2471 12.1429C71.8355 11.6339 68.822 11.457 65.084 11.457H35.9173C32.1793 11.457 29.1658 11.6339 26.7542 12.1429C24.3369 12.6532 22.4879 13.5047 21.1155 14.8799C19.7431 16.255 18.8958 18.1053 18.3889 20.5203C17.8832 22.9299 17.709 25.938 17.709 29.6654V75.4987C17.709 76.9309 16.5162 78.1237 15.084 78.1237C13.6518 78.1237 12.459 76.9309 12.459 75.4987V29.6654C12.459 20.4951 13.8605 14.6897 17.4011 11.1491C20.9417 7.60851 26.747 6.20703 35.9173 6.20703H65.084C74.2543 6.20703 80.0596 7.60851 83.6002 11.1491C87.1408 14.6897 88.5423 20.4951 88.5423 29.6654V71.332C88.5423 71.9998 88.5422 72.6087 88.5018 73.2563C88.3953 74.693 87.0896 75.8123 85.7047 75.7084L85.7038 75.7084C84.2634 75.603 83.1465 74.3364 83.2491 72.9129ZM83.2491 72.9129C83.2491 72.9137 83.249 72.9145 83.2489 72.9152L82.7506 72.8737L83.2493 72.9102C83.2492 72.9111 83.2492 72.912 83.2491 72.9129Z" fill="#0320F8" stroke="white"/>
<path d="M83.2923 66.125V65.625H82.7923H26.959C21.8495 65.625 17.709 69.7655 17.709 74.875V77.5833C17.709 84.1928 23.0578 89.5417 29.6673 89.5417H71.334C77.9435 89.5417 83.2923 84.1928 83.2923 77.5833V66.125ZM71.334 94.7917H29.6673C20.1935 94.7917 12.459 87.0572 12.459 77.5833V74.875C12.459 66.8604 18.9842 60.375 26.959 60.375H85.9173C87.3495 60.375 88.5423 61.5678 88.5423 63V77.5833C88.5423 87.0572 80.8078 94.7917 71.334 94.7917Z" fill="#0320F8" stroke="white"/>
<path d="M67.1673 32.293H33.834C32.4018 32.293 31.209 31.1002 31.209 29.668C31.209 28.2358 32.4018 27.043 33.834 27.043H67.1673C68.5995 27.043 69.7923 28.2358 69.7923 29.668C69.7923 31.1002 68.5995 32.293 67.1673 32.293Z" fill="#0320F8" stroke="white"/>
<path d="M54.6673 46.875H33.834C32.4018 46.875 31.209 45.6822 31.209 44.25C31.209 42.8178 32.4018 41.625 33.834 41.625H54.6673C56.0995 41.625 57.2923 42.8178 57.2923 44.25C57.2923 45.6822 56.0995 46.875 54.6673 46.875Z" fill="#0320F8" stroke="white"/>
</svg>
