<svg width="42" height="42" viewBox="0 0 42 42" fill="none" xmlns="http://www.w3.org/2000/svg">
<path d="M34.7143 5H7.27857C6.02143 5 5 6.03571 5 7.30714V34.6929C5 35.9643 6.02143 37 7.27857 37H34.7143C35.9714 37 37 35.9643 37 34.6929V7.30714C37 6.03571 35.9714 5 34.7143 5ZM14.6714 32.4286H9.92857V17.1571H14.6786V32.4286H14.6714ZM12.3 15.0714C10.7786 15.0714 9.55 13.8357 9.55 12.3214C9.55 10.8071 10.7786 9.57143 12.3 9.57143C13.8143 9.57143 15.05 10.8071 15.05 12.3214C15.05 13.8429 13.8214 15.0714 12.3 15.0714ZM32.45 32.4286H27.7071V25C27.7071 23.2286 27.6714 20.95 25.2429 20.95C22.7714 20.95 22.3929 22.8786 22.3929 24.8714V32.4286H17.65V17.1571H22.2V19.2429H22.2643C22.9 18.0429 24.45 16.7786 26.7571 16.7786C31.5571 16.7786 32.45 19.9429 32.45 24.0571V32.4286Z" fill="#0965C1"/>
</svg>
