<svg width="146" height="84" viewBox="0 0 146 84" fill="none" xmlns="http://www.w3.org/2000/svg">
<path d="M104.004 84C127.025 84 145.687 65.196 145.687 42C145.687 18.804 127.025 0 104.004 0C80.9826 0 62.3203 18.804 62.3203 42C62.3203 65.196 80.9826 84 104.004 84Z" fill="black"/>
<path d="M20.9961 41.9993C20.9961 65.1961 39.606 84 62.574 84L62.574 0C39.6117 0 20.9961 18.8054 20.9961 41.9993Z" fill="black"/>
<path d="M0.3125 41.9993C0.3125 57.5125 8.72191 71.0547 21.207 78.3022L21.207 5.69922C8.71611 12.9452 0.3125 26.4889 0.3125 41.9993Z" fill="black"/>
</svg>
