<svg width="100" height="101" viewBox="0 0 100 101" fill="none" xmlns="http://www.w3.org/2000/svg">
<path d="M56.584 95.2923H25.8757C14.459 95.2923 5.20898 86.0007 5.20898 74.6257V44.1257C5.20898 32.709 14.5007 23.459 25.8757 23.459H56.584C68.0006 23.459 77.2506 32.7507 77.2506 44.1257V74.6257C77.2506 86.0007 67.959 95.2923 56.584 95.2923ZM25.8757 29.709C17.9173 29.709 11.459 36.1673 11.459 44.1257V74.6257C11.459 82.584 17.9173 89.0423 25.8757 89.0423H56.584C64.5423 89.0423 71.0007 82.584 71.0007 74.6257V44.1257C71.0007 36.1673 64.5423 29.709 56.584 29.709H25.8757Z" fill="#E6E8F6"/>
<path d="M22.916 20.2917C21.2077 20.2917 19.791 18.875 19.791 17.1667V9.875C19.791 8.16667 21.2077 6.75 22.916 6.75C24.6243 6.75 26.041 8.16667 26.041 9.875V17.1667C26.041 18.875 24.6243 20.2917 22.916 20.2917Z" fill="#E6E8F6"/>
<path d="M39.584 20.2917C37.8757 20.2917 36.459 18.875 36.459 17.1667V9.875C36.459 8.16667 37.8757 6.75 39.584 6.75C41.2923 6.75 42.709 8.16667 42.709 9.875V17.1667C42.709 18.875 41.2923 20.2917 39.584 20.2917Z" fill="#E6E8F6"/>
<path d="M56.25 20.2917C54.5417 20.2917 53.125 18.875 53.125 17.1667V9.875C53.125 8.16667 54.5417 6.75 56.25 6.75C57.9583 6.75 59.375 8.16667 59.375 9.875V17.1667C59.375 18.875 57.9583 20.2917 56.25 20.2917Z" fill="#E6E8F6"/>
<path d="M74.125 75.9994C72.4167 75.9994 71 74.5827 71 72.8744V37.791C71 36.0827 72.4167 34.666 74.125 34.666C85.5417 34.666 94.7917 43.9577 94.7917 55.3327C94.7917 66.7077 85.5 75.9994 74.125 75.9994ZM77.25 41.2493V69.416C83.7083 67.9994 88.5417 62.2077 88.5417 55.3327C88.5417 48.4577 83.7083 42.666 77.25 41.2493Z" fill="#E6E8F6"/>
<path d="M72.959 53.625H8.33398C6.62565 53.625 5.20898 52.2083 5.20898 50.5C5.20898 48.7917 6.62565 47.375 8.33398 47.375H72.959C74.6673 47.375 76.084 48.7917 76.084 50.5C76.084 52.2083 74.6673 53.625 72.959 53.625Z" fill="#E6E8F6"/>
</svg>
