<svg width="26" height="26" viewBox="0 0 26 26" fill="none" xmlns="http://www.w3.org/2000/svg">
<path d="M13.0106 24.6461C12.3281 24.6461 11.6456 24.4185 11.1148 23.9635L9.40312 22.4902C9.22979 22.3386 8.79647 22.1869 8.56897 22.1869H6.69479C5.09146 22.1869 3.79146 20.8869 3.79146 19.2836V17.431C3.79146 17.2035 3.6398 16.781 3.48813 16.6077L2.02563 14.8852C1.13729 13.8344 1.13729 12.1769 2.02563 11.1261L3.48813 9.40361C3.6398 9.23028 3.79146 8.80777 3.79146 8.58027V6.72768C3.79146 5.12434 5.09146 3.82442 6.69479 3.82442H8.56897C8.79647 3.82442 9.22979 3.66189 9.40312 3.52105L11.1148 2.04773C12.1765 1.13773 13.834 1.13773 14.8956 2.04773L16.6073 3.52105C16.7806 3.67272 17.214 3.82442 17.4415 3.82442H19.2831C20.8865 3.82442 22.1865 5.12434 22.1865 6.72768V8.56942C22.1865 8.79692 22.349 9.23028 22.5006 9.40361L23.9631 11.1152C24.8731 12.1769 24.8731 13.8344 23.9631 14.8961L22.5006 16.6077C22.349 16.781 22.1973 17.2144 22.1973 17.4419V19.2836C22.1973 20.8869 20.8973 22.1869 19.294 22.1869H17.4523C17.2248 22.1869 16.7915 22.3494 16.6181 22.4902L14.9065 23.9635C14.3648 24.4185 13.6823 24.6461 13.0106 24.6461ZM6.69479 5.43857C5.99062 5.43857 5.41646 6.01267 5.41646 6.71683V8.56942C5.41646 9.18692 5.12396 9.97773 4.73396 10.4436L3.27145 12.166C2.89229 12.6102 2.89229 13.3794 3.27145 13.8236L4.73396 15.546C5.13479 16.0227 5.42731 16.8135 5.42731 17.4202V19.2728C5.42731 19.9769 6.00147 20.551 6.70563 20.551H8.57981C9.20814 20.551 9.99898 20.8435 10.4756 21.2552L12.1873 22.7285C12.6315 23.1077 13.4115 23.1077 13.8556 22.7285L15.5673 21.2552C16.044 20.8544 16.8348 20.551 17.4631 20.551H19.3048C20.009 20.551 20.5831 19.9769 20.5831 19.2728V17.431C20.5831 16.8027 20.8756 16.0118 21.2873 15.5352L22.7498 13.8236C23.129 13.3794 23.129 12.5994 22.7498 12.1552L21.2873 10.4436C20.8865 9.9669 20.5831 9.17607 20.5831 8.54773V6.70599C20.5831 6.00182 20.009 5.42773 19.3048 5.42773H17.4631C16.8456 5.42773 16.044 5.1352 15.5673 4.72354L13.8556 3.25022C13.4115 2.87105 12.6315 2.87105 12.1873 3.25022L10.4756 4.72354C9.99898 5.12437 9.20814 5.42773 8.57981 5.42773H6.69479V5.43857Z" fill="black"/>
<path d="M15.1662 18.3846H13.2379C12.7829 18.3846 12.1004 18.2438 11.6996 17.843L10.2046 16.6947L11.2012 15.4055L12.7721 16.6188C12.8804 16.6946 13.0754 16.7488 13.2379 16.7488H15.1662C15.4262 16.7488 15.7404 16.5214 15.7946 16.2939L17.0296 12.5346C17.0621 12.4371 17.0621 12.3722 17.0512 12.3505C17.0296 12.318 16.9537 12.2855 16.8454 12.2855H14.8196C14.4296 12.2855 14.0721 12.123 13.8121 11.8305C13.5629 11.538 13.4437 11.148 13.4979 10.7472L13.7579 9.11137C13.7796 9.0247 13.7146 8.91629 13.6496 8.89462C13.5846 8.88379 13.4871 8.9055 13.4546 8.938L11.3854 12.0146L10.0312 11.1047L12.1112 8.01719C12.5446 7.36719 13.4546 7.08554 14.1912 7.35637C15.0146 7.62721 15.5454 8.55889 15.3612 9.40389L15.1662 10.6388H16.8454C17.4846 10.6388 18.0479 10.9097 18.3837 11.3863C18.7087 11.8522 18.7846 12.4589 18.5787 13.033L17.3654 16.7164C17.1379 17.6481 16.1737 18.3846 15.1662 18.3846Z" fill="black"/>
<path d="M9.64469 17.8314H9.13552C7.54302 17.8314 7.30469 16.7155 7.30469 16.0547V11.0931C7.30469 10.4323 7.54302 9.31641 9.13552 9.31641H9.64469C11.2372 9.31641 11.4755 10.4323 11.4755 11.0931V16.0547C11.4755 16.7155 11.2372 17.8314 9.64469 17.8314ZM8.95138 16.1955C8.99471 16.2064 9.0597 16.2064 9.14637 16.2064H9.65554C9.7422 16.2064 9.80719 16.2064 9.85053 16.1955C9.85053 16.163 9.86137 16.1197 9.86137 16.0547V11.0931C9.86137 11.0281 9.86136 10.9848 9.85053 10.9523C9.80719 10.9414 9.7422 10.9414 9.65554 10.9414H9.14637C9.0597 10.9414 8.99471 10.9414 8.95138 10.9523C8.95138 10.9848 8.94053 11.0281 8.94053 11.0931V16.0547C8.94053 16.1197 8.94054 16.163 8.95138 16.1955Z" fill="black"/>
</svg>
