<svg width="30" height="30" viewBox="0 0 30 30" fill="none" xmlns="http://www.w3.org/2000/svg">
<rect width="30" height="30" rx="15" fill="black"/>
<path d="M10.5254 21.0625C10.1187 21.0625 9.73869 20.9225 9.46536 20.6625C9.11869 20.3359 8.95202 19.8425 9.01202 19.3092L9.25869 17.1492C9.30536 16.7425 9.55202 16.2025 9.83869 15.9092L15.312 10.1159C16.6787 8.66919 18.1054 8.62919 19.552 9.99585C20.9987 11.3625 21.0387 12.7892 19.672 14.2359L14.1987 20.0292C13.9187 20.3292 13.3987 20.6092 12.992 20.6759L10.8454 21.0425C10.732 21.0492 10.632 21.0625 10.5254 21.0625ZM17.452 9.98919C16.9387 9.98919 16.492 10.3092 16.0387 10.7892L10.5654 16.5892C10.432 16.7292 10.2787 17.0625 10.252 17.2559L10.0054 19.4159C9.97869 19.6359 10.032 19.8159 10.152 19.9292C10.272 20.0425 10.452 20.0825 10.672 20.0492L12.8187 19.6825C13.012 19.6492 13.332 19.4759 13.4654 19.3359L18.9387 13.5425C19.7654 12.6625 20.0654 11.8492 18.8587 10.7159C18.3254 10.2025 17.8654 9.98919 17.452 9.98919Z" fill="white"/>
<path d="M18.392 15.35C18.3787 15.35 18.3587 15.35 18.3453 15.35C16.2653 15.1434 14.592 13.5634 14.272 11.4967C14.232 11.2234 14.4187 10.97 14.692 10.9234C14.9653 10.8834 15.2187 11.07 15.2653 11.3434C15.5187 12.9567 16.8253 14.1967 18.452 14.3567C18.7253 14.3834 18.9253 14.63 18.8987 14.9034C18.8653 15.1567 18.6453 15.35 18.392 15.35Z" fill="white"/>
</svg>
