<svg width="52" height="52" viewBox="0 0 52 52" fill="none" xmlns="http://www.w3.org/2000/svg">
<rect width="52" height="52" rx="26" fill="black"/>
<path d="M26.2134 25.4927C26.1734 25.4927 26.1467 25.4927 26.1067 25.4927C26.0401 25.4793 25.9467 25.4793 25.8667 25.4927C22.0001 25.3727 19.0801 22.3327 19.0801 18.586C19.0801 14.7727 22.1867 11.666 26.0001 11.666C29.8134 11.666 32.9201 14.7727 32.9201 18.586C32.9067 22.3327 29.9734 25.3727 26.2534 25.4927C26.2401 25.4927 26.2267 25.4927 26.2134 25.4927ZM26.0001 13.666C23.2934 13.666 21.0801 15.8793 21.0801 18.586C21.0801 21.2527 23.1601 23.3993 25.8134 23.4927C25.8801 23.4793 26.0667 23.4793 26.2401 23.4927C28.8534 23.3727 30.9067 21.226 30.9201 18.586C30.9201 15.8793 28.7067 13.666 26.0001 13.666Z" fill="white"/>
<path d="M26.2261 40.0673C23.6128 40.0673 20.9861 39.4006 18.9995 38.0673C17.1461 36.8406 16.1328 35.1607 16.1328 33.334C16.1328 31.5073 17.1461 29.814 18.9995 28.574C22.9995 25.9207 29.4795 25.9207 33.4528 28.574C35.2928 29.8007 36.3195 31.4806 36.3195 33.3073C36.3195 35.134 35.3061 36.8273 33.4528 38.0673C31.4528 39.4006 28.8395 40.0673 26.2261 40.0673ZM20.1061 30.254C18.8261 31.1073 18.1328 32.2007 18.1328 33.3473C18.1328 34.4807 18.8395 35.574 20.1061 36.414C23.4261 38.6406 29.0261 38.6406 32.3461 36.414C33.6261 35.5606 34.3195 34.4673 34.3195 33.3206C34.3195 32.1873 33.6128 31.094 32.3461 30.254C29.0261 28.0407 23.4261 28.0407 20.1061 30.254Z" fill="white"/>
</svg>
