<svg width="24" height="24" viewBox="0 0 24 24" fill="none" xmlns="http://www.w3.org/2000/svg">
<path d="M18.0003 7.90977C17.9703 7.90977 17.9503 7.90977 17.9203 7.90977H17.8703C15.9803 7.84977 14.5703 6.38977 14.5703 4.58977C14.5703 2.74977 16.0703 1.25977 17.9003 1.25977C19.7303 1.25977 21.2303 2.75977 21.2303 4.58977C21.2203 6.39977 19.8103 7.85977 18.0103 7.91977C18.0103 7.90977 18.0103 7.90977 18.0003 7.90977ZM17.9003 2.74977C16.8903 2.74977 16.0703 3.56977 16.0703 4.57977C16.0703 5.56977 16.8403 6.36977 17.8303 6.40977C17.8403 6.39977 17.9203 6.39977 18.0103 6.40977C18.9803 6.35977 19.7303 5.55977 19.7403 4.57977C19.7403 3.56977 18.9203 2.74977 17.9003 2.74977Z" fill="#999999"/>
<path d="M18.0085 15.2806C17.6185 15.2806 17.2285 15.2506 16.8385 15.1806C16.4285 15.1106 16.1585 14.7206 16.2285 14.3106C16.2985 13.9006 16.6885 13.6306 17.0985 13.7006C18.3285 13.9106 19.6285 13.6806 20.4985 13.1006C20.9685 12.7906 21.2185 12.4006 21.2185 12.0106C21.2185 11.6206 20.9585 11.2406 20.4985 10.9306C19.6285 10.3506 18.3085 10.1206 17.0685 10.3406C16.6585 10.4206 16.2685 10.1406 16.1985 9.73063C16.1285 9.32063 16.3985 8.93064 16.8085 8.86064C18.4385 8.57064 20.1285 8.88063 21.3285 9.68063C22.2085 10.2706 22.7185 11.1106 22.7185 12.0106C22.7185 12.9006 22.2185 13.7506 21.3285 14.3506C20.4185 14.9506 19.2385 15.2806 18.0085 15.2806Z" fill="#999999"/>
<path d="M5.96656 7.91C5.95656 7.91 5.94656 7.91 5.94656 7.91C4.14656 7.85 2.73656 6.39 2.72656 4.59C2.72656 2.75 4.22656 1.25 6.05656 1.25C7.88656 1.25 9.38656 2.75 9.38656 4.58C9.38656 6.39 7.97656 7.85 6.17656 7.91L5.96656 7.16L6.03656 7.91C6.01656 7.91 5.98656 7.91 5.96656 7.91ZM6.06656 6.41C6.12656 6.41 6.17656 6.41 6.23656 6.42C7.12656 6.38 7.90656 5.58 7.90656 4.59C7.90656 3.58 7.08656 2.75999 6.07656 2.75999C5.06656 2.75999 4.24656 3.58 4.24656 4.59C4.24656 5.57 5.00656 6.36 5.97656 6.42C5.98656 6.41 6.02656 6.41 6.06656 6.41Z" fill="#999999"/>
<path d="M5.96 15.2806C4.73 15.2806 3.55 14.9506 2.64 14.3506C1.76 13.7606 1.25 12.9106 1.25 12.0106C1.25 11.1206 1.76 10.2706 2.64 9.68063C3.84 8.88063 5.53 8.57064 7.16 8.86064C7.57 8.93064 7.84 9.32063 7.77 9.73063C7.7 10.1406 7.31 10.4206 6.9 10.3406C5.66 10.1206 4.35 10.3506 3.47 10.9306C3 11.2406 2.75 11.6206 2.75 12.0106C2.75 12.4006 3.01 12.7906 3.47 13.1006C4.34 13.6806 5.64 13.9106 6.87 13.7006C7.28 13.6306 7.67 13.9106 7.74 14.3106C7.81 14.7206 7.54 15.1106 7.13 15.1806C6.74 15.2506 6.35 15.2806 5.96 15.2806Z" fill="#999999"/>
<path d="M12.0003 15.3805C11.9703 15.3805 11.9503 15.3805 11.9203 15.3805H11.8703C9.98031 15.3205 8.57031 13.8605 8.57031 12.0605C8.57031 10.2205 10.0703 8.73047 11.9003 8.73047C13.7303 8.73047 15.2303 10.2305 15.2303 12.0605C15.2203 13.8705 13.8103 15.3305 12.0103 15.3905C12.0103 15.3805 12.0103 15.3805 12.0003 15.3805ZM11.9003 10.2205C10.8903 10.2205 10.0703 11.0405 10.0703 12.0505C10.0703 13.0405 10.8403 13.8405 11.8303 13.8805C11.8403 13.8705 11.9203 13.8705 12.0103 13.8805C12.9803 13.8305 13.7303 13.0305 13.7403 12.0505C13.7403 11.0505 12.9203 10.2205 11.9003 10.2205Z" fill="#999999"/>
<path d="M12.0013 22.7607C10.8013 22.7607 9.60125 22.4507 8.67125 21.8207C7.79125 21.2307 7.28125 20.3907 7.28125 19.4907C7.28125 18.6007 7.78125 17.7407 8.67125 17.1507C10.5412 15.9107 13.4713 15.9107 15.3313 17.1507C16.2113 17.7407 16.7213 18.5807 16.7213 19.4807C16.7213 20.3707 16.2213 21.2307 15.3313 21.8207C14.4013 22.4407 13.2013 22.7607 12.0013 22.7607ZM9.50125 18.4107C9.03125 18.7207 8.78125 19.1107 8.78125 19.5007C8.78125 19.8907 9.04125 20.2707 9.50125 20.5807C10.8513 21.4907 13.1413 21.4907 14.4913 20.5807C14.9613 20.2707 15.2113 19.8807 15.2113 19.4907C15.2113 19.1007 14.9513 18.7207 14.4913 18.4107C13.1513 17.5007 10.8613 17.5107 9.50125 18.4107Z" fill="#999999"/>
</svg>
