<svg width="24" height="25" viewBox="0 0 24 25" fill="none" xmlns="http://www.w3.org/2000/svg">
<path d="M18.0003 8.41173C17.9703 8.41173 17.9503 8.41173 17.9203 8.41173H17.8703C15.9803 8.35173 14.5703 6.89172 14.5703 5.09172C14.5703 3.25172 16.0703 1.76172 17.9003 1.76172C19.7303 1.76172 21.2303 3.26172 21.2303 5.09172C21.2203 6.90172 19.8103 8.36172 18.0103 8.42172C18.0103 8.41172 18.0103 8.41173 18.0003 8.41173ZM17.9003 3.25172C16.8903 3.25172 16.0703 4.07173 16.0703 5.08173C16.0703 6.07173 16.8403 6.87173 17.8303 6.91173C17.8403 6.90173 17.9203 6.90173 18.0103 6.91173C18.9803 6.86173 19.7303 6.06173 19.7403 5.08173C19.7403 4.07173 18.9203 3.25172 17.9003 3.25172Z" fill="black"/>
<path d="M18.0105 15.7806C17.6205 15.7806 17.2305 15.7506 16.8405 15.6806C16.4305 15.6106 16.1605 15.2206 16.2305 14.8106C16.3005 14.4006 16.6905 14.1306 17.1005 14.2006C18.3305 14.4106 19.6305 14.1806 20.5005 13.6006C20.9705 13.2906 21.2205 12.9006 21.2205 12.5106C21.2205 12.1206 20.9605 11.7406 20.5005 11.4306C19.6305 10.8506 18.3105 10.6206 17.0705 10.8406C16.6605 10.9206 16.2705 10.6406 16.2005 10.2306C16.1305 9.82063 16.4005 9.43064 16.8105 9.36064C18.4405 9.07064 20.1305 9.38063 21.3305 10.1806C22.2105 10.7706 22.7205 11.6106 22.7205 12.5106C22.7205 13.4006 22.2205 14.2506 21.3305 14.8506C20.4205 15.4506 19.2405 15.7806 18.0105 15.7806Z" fill="black"/>
<path d="M5.97047 8.41C5.96047 8.41 5.95047 8.41 5.95047 8.41C4.15047 8.35 2.74047 6.89 2.73047 5.09C2.73047 3.25 4.23047 1.75 6.06047 1.75C7.89047 1.75 9.39047 3.25 9.39047 5.08C9.39047 6.89 7.98047 8.35 6.18047 8.41L5.97047 7.66L6.04047 8.41C6.02047 8.41 5.99047 8.41 5.97047 8.41ZM6.07047 6.91C6.13047 6.91 6.18047 6.91 6.24047 6.92C7.13047 6.88 7.91047 6.08 7.91047 5.09C7.91047 4.08 7.09047 3.25999 6.08047 3.25999C5.07047 3.25999 4.25047 4.08 4.25047 5.09C4.25047 6.07 5.01047 6.86 5.98047 6.92C5.99047 6.91 6.03047 6.91 6.07047 6.91Z" fill="black"/>
<path d="M5.96 15.7806C4.73 15.7806 3.55 15.4506 2.64 14.8506C1.76 14.2606 1.25 13.4106 1.25 12.5106C1.25 11.6206 1.76 10.7706 2.64 10.1806C3.84 9.38063 5.53 9.07064 7.16 9.36064C7.57 9.43064 7.84 9.82063 7.77 10.2306C7.7 10.6406 7.31 10.9206 6.9 10.8406C5.66 10.6206 4.35 10.8506 3.47 11.4306C3 11.7406 2.75 12.1206 2.75 12.5106C2.75 12.9006 3.01 13.2906 3.47 13.6006C4.34 14.1806 5.64 14.4106 6.87 14.2006C7.28 14.1306 7.67 14.4106 7.74 14.8106C7.81 15.2206 7.54 15.6106 7.13 15.6806C6.74 15.7506 6.35 15.7806 5.96 15.7806Z" fill="black"/>
<path d="M12.0003 15.8805C11.9703 15.8805 11.9503 15.8805 11.9203 15.8805H11.8703C9.98031 15.8205 8.57031 14.3605 8.57031 12.5605C8.57031 10.7205 10.0703 9.23047 11.9003 9.23047C13.7303 9.23047 15.2303 10.7305 15.2303 12.5605C15.2203 14.3705 13.8103 15.8305 12.0103 15.8905C12.0103 15.8805 12.0103 15.8805 12.0003 15.8805ZM11.9003 10.7205C10.8903 10.7205 10.0703 11.5405 10.0703 12.5505C10.0703 13.5405 10.8403 14.3405 11.8303 14.3805C11.8403 14.3705 11.9203 14.3705 12.0103 14.3805C12.9803 14.3305 13.7303 13.5305 13.7403 12.5505C13.7403 11.5505 12.9203 10.7205 11.9003 10.7205Z" fill="black"/>
<path d="M11.9993 23.2588C10.7993 23.2588 9.5993 22.9488 8.6693 22.3188C7.7893 21.7288 7.2793 20.8888 7.2793 19.9888C7.2793 19.0988 7.7793 18.2387 8.6693 17.6488C10.5393 16.4087 13.4693 16.4087 15.3293 17.6488C16.2093 18.2387 16.7193 19.0788 16.7193 19.9788C16.7193 20.8688 16.2193 21.7288 15.3293 22.3188C14.3993 22.9388 13.1993 23.2588 11.9993 23.2588ZM9.4993 18.9088C9.0293 19.2188 8.7793 19.6088 8.7793 19.9988C8.7793 20.3888 9.0393 20.7688 9.4993 21.0788C10.8493 21.9888 13.1393 21.9888 14.4893 21.0788C14.9593 20.7688 15.2093 20.3788 15.2093 19.9888C15.2093 19.5988 14.9493 19.2188 14.4893 18.9088C13.1493 17.9988 10.8593 18.0088 9.4993 18.9088Z" fill="black"/>
</svg>
