<svg width="24" height="24" viewBox="0 0 24 24" fill="none" xmlns="http://www.w3.org/2000/svg">
<path d="M15 22.75H9C3.57 22.75 1.25 20.43 1.25 15V9C1.25 3.57 3.57 1.25 9 1.25H15C20.43 1.25 22.75 3.57 22.75 9V15C22.75 20.43 20.43 22.75 15 22.75ZM9 2.75C4.39 2.75 2.75 4.39 2.75 9V15C2.75 19.61 4.39 21.25 9 21.25H15C19.61 21.25 21.25 19.61 21.25 15V9C21.25 4.39 19.61 2.75 15 2.75H9Z" fill="#0320F8"/>
<path d="M14.8298 12.6794C14.4198 12.6794 14.0798 12.3394 14.0798 11.9294V8.43945H10.5898C10.1798 8.43945 9.83984 8.09945 9.83984 7.68945C9.83984 7.27945 10.1798 6.93945 10.5898 6.93945H14.8298C15.2398 6.93945 15.5798 7.27945 15.5798 7.68945V11.9294C15.5798 12.3394 15.2398 12.6794 14.8298 12.6794Z" fill="#0320F8"/>
<path d="M9.16937 14.0891C8.97937 14.0891 8.78938 14.0191 8.63938 13.8691C8.34938 13.5791 8.34938 13.0991 8.63938 12.8091L14.2994 7.14914C14.5894 6.85914 15.0694 6.85914 15.3594 7.14914C15.6494 7.43914 15.6494 7.91915 15.3594 8.20915L9.69937 13.8691C9.55937 14.0191 9.35937 14.0891 9.16937 14.0891Z" fill="#0320F8"/>
<path d="M11.9985 18.2302C9.88849 18.2302 7.76848 17.8902 5.75848 17.2202C5.36848 17.0902 5.15848 16.6602 5.28848 16.2702C5.41848 15.8802 5.84849 15.6602 6.23849 15.8002C9.95849 17.0402 14.0485 17.0402 17.7685 15.8002C18.1585 15.6702 18.5885 15.8802 18.7185 16.2702C18.8485 16.6602 18.6385 17.0902 18.2485 17.2202C16.2285 17.9002 14.1085 18.2302 11.9985 18.2302Z" fill="#0320F8"/>
</svg>
