<svg width="16" height="16" viewBox="0 0 16 16" fill="none" xmlns="http://www.w3.org/2000/svg">
<path d="M3.52536 14.0625C3.11869 14.0625 2.73869 13.9225 2.46536 13.6625C2.11869 13.3359 1.95202 12.8425 2.01202 12.3092L2.25869 10.1492C2.30536 9.74252 2.55202 9.20252 2.83869 8.90919L8.31202 3.11585C9.67869 1.66919 11.1054 1.62919 12.552 2.99585C13.9987 4.36252 14.0387 5.78919 12.672 7.23585L7.19869 13.0292C6.91869 13.3292 6.39869 13.6092 5.99202 13.6759L3.84536 14.0425C3.73202 14.0492 3.63202 14.0625 3.52536 14.0625ZM10.452 2.98919C9.93869 2.98919 9.49202 3.30919 9.03869 3.78919L3.56536 9.58919C3.43202 9.72919 3.27869 10.0625 3.25202 10.2559L3.00536 12.4159C2.97869 12.6359 3.03202 12.8159 3.15202 12.9292C3.27202 13.0425 3.45202 13.0825 3.67202 13.0492L5.81869 12.6825C6.01202 12.6492 6.33202 12.4759 6.46536 12.3359L11.9387 6.54252C12.7654 5.66252 13.0654 4.84919 11.8587 3.71585C11.3254 3.20252 10.8654 2.98919 10.452 2.98919Z" fill="white"/>
<path d="M11.391 8.34808C11.3777 8.34808 11.3577 8.34808 11.3444 8.34808C9.26435 8.14141 7.59102 6.56141 7.27102 4.49474C7.23102 4.22141 7.41769 3.96808 7.69102 3.92141C7.96435 3.88141 8.21769 4.06808 8.26435 4.34141C8.51769 5.95474 9.82435 7.19474 11.451 7.35474C11.7244 7.38141 11.9244 7.62808 11.8977 7.90141C11.8644 8.15474 11.6444 8.34808 11.391 8.34808Z" fill="white"/>
</svg>
