<svg width="25" height="24" viewBox="0 0 25 24" fill="none" xmlns="http://www.w3.org/2000/svg">
<path d="M7.96124 19.3403H6.0412C3.1012 19.1303 1.78125 16.8703 1.78125 14.8603C1.78125 12.8503 3.10121 10.5803 5.99121 10.3803C6.40121 10.3403 6.7612 10.6603 6.7912 11.0803C6.8212 11.4903 6.51125 11.8503 6.09125 11.8803C4.15125 12.0203 3.28125 13.4803 3.28125 14.8703C3.28125 16.2603 4.15125 17.7203 6.09125 17.8603H7.96124C8.37124 17.8603 8.71124 18.2003 8.71124 18.6103C8.71124 19.0203 8.37124 19.3403 7.96124 19.3403Z" fill="#0320F8"/>
<path d="M17.1709 19.339C17.1509 19.339 17.1409 19.339 17.1209 19.339C16.7109 19.339 16.3309 18.999 16.3309 18.589C16.3309 18.159 16.6509 17.839 17.0709 17.839C18.3009 17.839 19.4009 17.409 20.2609 16.639C21.8209 15.279 21.9209 13.319 21.5009 11.939C21.0809 10.569 19.9109 8.99903 17.8709 8.74903C17.5409 8.70903 17.2809 8.45903 17.2209 8.12903C16.8209 5.72903 15.5309 4.06903 13.5709 3.46903C11.5509 2.83903 9.19086 3.45903 7.72086 4.99903C6.29086 6.48903 5.96087 8.57903 6.79087 10.879C6.93087 11.269 6.73092 11.699 6.34092 11.839C5.95092 11.979 5.5209 11.779 5.3809 11.389C4.3709 8.56903 4.83091 5.86903 6.64091 3.96903C8.49091 2.02903 11.4609 1.25902 14.0109 2.03902C16.3509 2.75902 18.0009 4.68902 18.6009 7.36902C20.6409 7.82902 22.2809 9.37903 22.9309 11.519C23.6409 13.849 23.0009 16.249 21.2509 17.769C20.1409 18.769 18.6909 19.339 17.1709 19.339Z" fill="#0320F8"/>
<path d="M12.5 22.2793C10.49 22.2793 8.61002 21.2093 7.58002 19.4793C7.47002 19.3093 7.36002 19.1093 7.27002 18.8893C6.93002 18.1793 6.75 17.3693 6.75 16.5293C6.75 13.3593 9.33 10.7793 12.5 10.7793C15.67 10.7793 18.25 13.3593 18.25 16.5293C18.25 17.3793 18.07 18.1793 17.71 18.9193C17.63 19.1093 17.52 19.3093 17.4 19.4993C16.39 21.2093 14.51 22.2793 12.5 22.2793ZM12.5 12.2793C10.16 12.2793 8.25 14.1893 8.25 16.5293C8.25 17.1493 8.38 17.7293 8.63 18.2593C8.71 18.4293 8.77999 18.5693 8.85999 18.6993C9.61999 19.9893 11.01 20.7793 12.49 20.7793C13.97 20.7793 15.36 19.9893 16.11 18.7193C16.2 18.5693 16.28 18.4293 16.34 18.2893C16.61 17.7393 16.74 17.1593 16.74 16.5393C16.75 14.1893 14.84 12.2793 12.5 12.2793Z" fill="#0320F8"/>
<path d="M11.9289 18.2708C11.7389 18.2708 11.549 18.2008 11.399 18.0508L10.4089 17.0608C10.1189 16.7708 10.1189 16.2908 10.4089 16.0008C10.6989 15.7108 11.1789 15.7108 11.4689 16.0008L11.9489 16.4808L13.5489 15.0008C13.8589 14.7208 14.3289 14.7408 14.6089 15.0408C14.8889 15.3408 14.8689 15.8208 14.5689 16.1008L12.4389 18.0708C12.2889 18.2008 12.1089 18.2708 11.9289 18.2708Z" fill="#0320F8"/>
</svg>
