<svg width="27" height="27" viewBox="0 0 27 27" fill="none" xmlns="http://www.w3.org/2000/svg">
<path d="M13.5106 25.1441C12.8281 25.1441 12.1456 24.9166 11.6148 24.4616L9.90312 22.9883C9.72979 22.8366 9.29647 22.6849 9.06897 22.6849H7.19479C5.59146 22.6849 4.29146 21.385 4.29146 19.7817V17.9291C4.29146 17.7016 4.1398 17.2791 3.98813 17.1057L2.52563 15.3833C1.63729 14.3324 1.63729 12.675 2.52563 11.6241L3.98813 9.90166C4.1398 9.72832 4.29146 9.30581 4.29146 9.07831V7.22572C4.29146 5.62239 5.59146 4.32246 7.19479 4.32246H9.06897C9.29647 4.32246 9.72979 4.15993 9.90312 4.0191L11.6148 2.54578C12.6765 1.63578 14.334 1.63578 15.3956 2.54578L17.1073 4.0191C17.2806 4.17077 17.714 4.32246 17.9415 4.32246H19.7831C21.3865 4.32246 22.6865 5.62239 22.6865 7.22572V9.06747C22.6865 9.29497 22.849 9.72832 23.0006 9.90166L24.4631 11.6133C25.3731 12.6749 25.3731 14.3324 24.4631 15.3941L23.0006 17.1057C22.849 17.2791 22.6973 17.7124 22.6973 17.9399V19.7817C22.6973 21.385 21.3973 22.6849 19.794 22.6849H17.9523C17.7248 22.6849 17.2915 22.8474 17.1181 22.9883L15.4065 24.4616C14.8648 24.9166 14.1823 25.1441 13.5106 25.1441ZM7.19479 5.93662C6.49062 5.93662 5.91646 6.51071 5.91646 7.21488V9.06747C5.91646 9.68497 5.62396 10.4758 5.23396 10.9416L3.77145 12.6641C3.39229 13.1082 3.39229 13.8774 3.77145 14.3216L5.23396 16.0441C5.63479 16.5207 5.92731 17.3116 5.92731 17.9182V19.7708C5.92731 20.475 6.50147 21.0491 7.20563 21.0491H9.07981C9.70814 21.0491 10.499 21.3416 10.9756 21.7533L12.6873 23.2266C13.1315 23.6057 13.9115 23.6057 14.3556 23.2266L16.0673 21.7533C16.544 21.3524 17.3348 21.0491 17.9631 21.0491H19.8048C20.509 21.0491 21.0831 20.475 21.0831 19.7708V17.9291C21.0831 17.3007 21.3756 16.5099 21.7873 16.0332L23.2498 14.3216C23.629 13.8774 23.629 13.0974 23.2498 12.6532L21.7873 10.9416C21.3865 10.4649 21.0831 9.67412 21.0831 9.04578V7.20404C21.0831 6.49987 20.509 5.92578 19.8048 5.92578H17.9631C17.3456 5.92578 16.544 5.63325 16.0673 5.22158L14.3556 3.74827C13.9115 3.3691 13.1315 3.3691 12.6873 3.74827L10.9756 5.22158C10.499 5.62242 9.70814 5.92578 9.07981 5.92578H7.19479V5.93662Z" fill="#999999"/>
<path d="M15.6662 18.8846H13.7379C13.2829 18.8846 12.6004 18.7438 12.1996 18.343L10.7046 17.1947L11.7012 15.9055L13.2721 17.1188C13.3804 17.1946 13.5754 17.2488 13.7379 17.2488H15.6662C15.9262 17.2488 16.2404 17.0214 16.2946 16.7939L17.5296 13.0346C17.5621 12.9371 17.5621 12.8722 17.5512 12.8505C17.5296 12.818 17.4537 12.7855 17.3454 12.7855H15.3196C14.9296 12.7855 14.5721 12.623 14.3121 12.3305C14.0629 12.038 13.9437 11.648 13.9979 11.2472L14.2579 9.61137C14.2796 9.5247 14.2146 9.41629 14.1496 9.39462C14.0846 9.38379 13.9871 9.4055 13.9546 9.438L11.8854 12.5146L10.5312 11.6047L12.6112 8.51719C13.0446 7.86719 13.9546 7.58554 14.6912 7.85637C15.5146 8.12721 16.0454 9.05889 15.8612 9.90389L15.6662 11.1388H17.3454C17.9846 11.1388 18.5479 11.4097 18.8837 11.8863C19.2087 12.3522 19.2846 12.9589 19.0787 13.533L17.8654 17.2164C17.6379 18.1481 16.6737 18.8846 15.6662 18.8846Z" fill="#999999"/>
<path d="M10.1418 18.3314H9.63259C8.04009 18.3314 7.80176 17.2155 7.80176 16.5547V11.5931C7.80176 10.9323 8.04009 9.81641 9.63259 9.81641H10.1418C11.7343 9.81641 11.9726 10.9323 11.9726 11.5931V16.5547C11.9726 17.2155 11.7343 18.3314 10.1418 18.3314ZM9.44845 16.6955C9.49178 16.7064 9.55677 16.7064 9.64344 16.7064H10.1526C10.2393 16.7064 10.3043 16.7064 10.3476 16.6955C10.3476 16.663 10.3584 16.6197 10.3584 16.5547V11.5931C10.3584 11.5281 10.3584 11.4848 10.3476 11.4523C10.3043 11.4414 10.2393 11.4414 10.1526 11.4414H9.64344C9.55677 11.4414 9.49178 11.4414 9.44845 11.4523C9.44845 11.4848 9.4376 11.5281 9.4376 11.5931V16.5547C9.4376 16.6197 9.43761 16.663 9.44845 16.6955Z" fill="#999999"/>
</svg>
