<svg width="44" height="44" viewBox="0 0 44 44" fill="none" xmlns="http://www.w3.org/2000/svg">
<rect width="44" height="44" rx="22" fill="black"/>
<path d="M27.2397 32.75H16.7597C13.9597 32.75 12.1797 31.08 12.0197 28.29L11.4997 20.04C11.4197 18.79 11.8497 17.59 12.7097 16.68C13.5597 15.77 14.7597 15.25 15.9997 15.25C16.3197 15.25 16.6297 15.06 16.7797 14.76L17.4997 13.33C18.0897 12.16 19.5697 11.25 20.8597 11.25H23.1497C24.4397 11.25 25.9097 12.16 26.4997 13.32L27.2197 14.78C27.3697 15.06 27.6697 15.25 27.9997 15.25C29.2397 15.25 30.4397 15.77 31.2897 16.68C32.1497 17.6 32.5797 18.79 32.4997 20.04L31.9797 28.3C31.7997 31.13 30.0697 32.75 27.2397 32.75ZM20.8597 12.75C20.1197 12.75 19.1797 13.33 18.8397 14L18.1197 15.44C17.6997 16.25 16.8897 16.75 15.9997 16.75C15.1597 16.75 14.3797 17.09 13.7997 17.7C13.2297 18.31 12.9397 19.11 12.9997 19.94L13.5197 28.2C13.6397 30.22 14.7297 31.25 16.7597 31.25H27.2397C29.2597 31.25 30.3497 30.22 30.4797 28.2L30.9997 19.94C31.0497 19.11 30.7697 18.31 30.1997 17.7C29.6197 17.09 28.8397 16.75 27.9997 16.75C27.1097 16.75 26.2997 16.25 25.8797 15.46L25.1497 14C24.8197 13.34 23.8797 12.76 23.1397 12.76H20.8597V12.75Z" fill="white"/>
<path d="M23.5 18.75H20.5C20.09 18.75 19.75 18.41 19.75 18C19.75 17.59 20.09 17.25 20.5 17.25H23.5C23.91 17.25 24.25 17.59 24.25 18C24.25 18.41 23.91 18.75 23.5 18.75Z" fill="white"/>
<path d="M22 28.75C19.79 28.75 18 26.96 18 24.75C18 22.54 19.79 20.75 22 20.75C24.21 20.75 26 22.54 26 24.75C26 26.96 24.21 28.75 22 28.75ZM22 22.25C20.62 22.25 19.5 23.37 19.5 24.75C19.5 26.13 20.62 27.25 22 27.25C23.38 27.25 24.5 26.13 24.5 24.75C24.5 23.37 23.38 22.25 22 22.25Z" fill="white"/>
</svg>
