<svg width="52" height="52" viewBox="0 0 52 52" fill="none" xmlns="http://www.w3.org/2000/svg">
<rect width="52" height="52" rx="26" fill="black"/>
<path d="M18.7475 30.4933C19.0008 30.4933 19.2541 30.3999 19.4541 30.1999C19.8408 29.8133 19.8408 29.1733 19.4541 28.7866L16.7475 26.0799L19.4541 23.3733C19.8408 22.9866 19.8408 22.3466 19.4541 21.9599C19.0675 21.5733 18.4275 21.5733 18.0408 21.9599L14.6275 25.3733C14.2408 25.7599 14.2408 26.3999 14.6275 26.7866L18.0408 30.1999C18.2408 30.3999 18.4941 30.4933 18.7475 30.4933Z" fill="white"/>
<path d="M15.4263 27.0801H28.9863C29.533 27.0801 29.9863 26.6267 29.9863 26.0801C29.9863 25.5334 29.533 25.0801 28.9863 25.0801H15.4263C14.8797 25.0801 14.4263 25.5334 14.4263 26.0801C14.4263 26.6267 14.8797 27.0801 15.4263 27.0801Z" fill="white"/>
<path d="M26.3197 37.6673C33.1863 37.6673 37.9863 32.8673 37.9863 26.0007C37.9863 19.134 33.1863 14.334 26.3197 14.334C25.773 14.334 25.3197 14.7873 25.3197 15.334C25.3197 15.8807 25.773 16.334 26.3197 16.334C32.013 16.334 35.9863 20.3073 35.9863 26.0007C35.9863 31.694 32.013 35.6673 26.3197 35.6673C25.773 35.6673 25.3197 36.1206 25.3197 36.6673C25.3197 37.214 25.773 37.6673 26.3197 37.6673Z" fill="white"/>
</svg>
