<svg width="25" height="25" viewBox="0 0 25 25" fill="none" xmlns="http://www.w3.org/2000/svg">
<rect x="0.5" y="0.5" width="24" height="24" rx="12" fill="black"/>
<path fill-rule="evenodd" clip-rule="evenodd" d="M6.5 12.5C6.5 12.2239 6.72386 12 7 12H18C18.2761 12 18.5 12.2239 18.5 12.5C18.5 12.7761 18.2761 13 18 13H7C6.72386 13 6.5 12.7761 6.5 12.5Z" fill="white"/>
<path fill-rule="evenodd" clip-rule="evenodd" d="M12.5 6.5C12.7761 6.5 13 6.72386 13 7V18C13 18.2761 12.7761 18.5 12.5 18.5C12.2239 18.5 12 18.2761 12 18V7C12 6.72386 12.2239 6.5 12.5 6.5Z" fill="white"/>
</svg>
