<svg width="24" height="25" viewBox="0 0 24 25" fill="none" xmlns="http://www.w3.org/2000/svg">
<path d="M13 23.25H9C3.57 23.25 1.25 20.93 1.25 15.5V9.5C1.25 4.07 3.57 1.75 9 1.75H15C20.43 1.75 22.75 4.07 22.75 9.5V13.5C22.75 13.91 22.41 14.25 22 14.25C21.59 14.25 21.25 13.91 21.25 13.5V9.5C21.25 4.89 19.61 3.25 15 3.25H9C4.39 3.25 2.75 4.89 2.75 9.5V15.5C2.75 20.11 4.39 21.75 9 21.75H13C13.41 21.75 13.75 22.09 13.75 22.5C13.75 22.91 13.41 23.25 13 23.25Z" fill="black"/>
<path d="M13 23.25H9C3.57 23.25 1.25 20.93 1.25 15.5V9.5C1.25 4.07 3.57 1.75 9 1.75H15C20.43 1.75 22.75 4.07 22.75 9.5V13.5C22.75 13.91 22.41 14.25 22 14.25C21.59 14.25 21.25 13.91 21.25 13.5V9.5C21.25 4.89 19.61 3.25 15 3.25H9C4.39 3.25 2.75 4.89 2.75 9.5V15.5C2.75 20.11 4.39 21.75 9 21.75H13C13.41 21.75 13.75 22.09 13.75 22.5C13.75 22.91 13.41 23.25 13 23.25Z" fill="black"/>
<path d="M7 15.1905C6.59 15.1905 6.25 14.8505 6.25 14.4405V11.2305C6.25 10.8205 6.59 10.4805 7 10.4805C7.41 10.4805 7.75 10.8205 7.75 11.2305V14.4405C7.75 14.8605 7.41 15.1905 7 15.1905Z" fill="black"/>
<path d="M17 15.1905C16.59 15.1905 16.25 14.8505 16.25 14.4405V11.2305C16.25 10.8205 16.59 10.4805 17 10.4805C17.41 10.4805 17.75 10.8205 17.75 11.2305V14.4405C17.75 14.8605 17.41 15.1905 17 15.1905Z" fill="black"/>
<path d="M13 23.25H9C3.57 23.25 1.25 20.93 1.25 15.5V9.5C1.25 4.07 3.57 1.75 9 1.75H15C20.43 1.75 22.75 4.07 22.75 9.5V13.5C22.75 13.91 22.41 14.25 22 14.25C21.59 14.25 21.25 13.91 21.25 13.5V9.5C21.25 4.89 19.61 3.25 15 3.25H9C4.39 3.25 2.75 4.89 2.75 9.5V15.5C2.75 20.11 4.39 21.75 9 21.75H13C13.41 21.75 13.75 22.09 13.75 22.5C13.75 22.91 13.41 23.25 13 23.25Z" fill="black"/>
<path d="M17.5793 22.2493C17.3793 22.2493 17.1893 22.1693 17.0493 22.0293L15.4693 20.4593C15.1793 20.1693 15.1693 19.6893 15.4693 19.3993C15.7593 19.1093 16.2393 19.0993 16.5293 19.3993L17.5393 20.3993L20.4393 17.0093C20.7093 16.6893 21.1793 16.6593 21.4993 16.9293C21.8093 17.1993 21.8493 17.6693 21.5793 17.9893L18.1593 21.9893C18.0193 22.1493 17.8293 22.2393 17.6193 22.2493C17.5993 22.2493 17.5893 22.2493 17.5793 22.2493Z" fill="black"/>
<path d="M12 14.75C11.59 14.75 11.25 14.41 11.25 14V11C11.25 10.59 11.59 10.25 12 10.25C12.41 10.25 12.75 10.59 12.75 11V14C12.75 14.41 12.41 14.75 12 14.75Z" fill="black"/>
</svg>
