<svg width="52" height="52" viewBox="0 0 52 52" fill="none" xmlns="http://www.w3.org/2000/svg">
<rect width="52" height="52" rx="26" fill="black"/>
<path d="M26 31C23.24 31 21 28.76 21 26C21 23.24 23.24 21 26 21C28.76 21 31 23.24 31 26C31 28.76 28.76 31 26 31ZM26 23C24.3467 23 23 24.3467 23 26C23 27.6533 24.3467 29 26 29C27.6533 29 29 27.6533 29 26C29 24.3467 27.6533 23 26 23Z" fill="white"/>
<path d="M30.2794 39.5864C29.9993 39.5864 29.7193 39.5464 29.4394 39.4797C28.6127 39.2531 27.9193 38.7331 27.4793 37.9997L27.3193 37.7331C26.5327 36.3731 25.4527 36.3731 24.666 37.7331L24.5194 37.9864C24.0793 38.7331 23.386 39.2664 22.5593 39.4797C21.7193 39.7064 20.8527 39.5864 20.1193 39.1464L17.826 37.8264C17.0127 37.3597 16.426 36.5997 16.1727 35.6797C15.9327 34.7597 16.0527 33.8131 16.5193 32.9997C16.906 32.3197 17.0127 31.7064 16.786 31.3197C16.5593 30.9331 15.986 30.7064 15.1993 30.7064C13.2527 30.7064 11.666 29.1197 11.666 27.1731V24.8264C11.666 22.8797 13.2527 21.2931 15.1993 21.2931C15.986 21.2931 16.5593 21.0664 16.786 20.6797C17.0127 20.2931 16.9193 19.6797 16.5193 18.9997C16.0527 18.1864 15.9327 17.2264 16.1727 16.3197C16.4127 15.3997 16.9993 14.6397 17.826 14.1731L20.1327 12.8531C21.6393 11.9597 23.626 12.4797 24.5327 14.0131L24.6927 14.2797C25.4794 15.6397 26.5594 15.6397 27.346 14.2797L27.4927 14.0264C28.3993 12.4797 30.386 11.9597 31.906 12.8664L34.1993 14.1864C35.0127 14.6531 35.5993 15.4131 35.8527 16.3331C36.0927 17.2531 35.9727 18.1997 35.506 19.0131C35.1193 19.6931 35.0127 20.3064 35.2393 20.6931C35.466 21.0797 36.0394 21.3064 36.826 21.3064C38.7727 21.3064 40.3594 22.8931 40.3594 24.8397V27.1864C40.3594 29.1331 38.7727 30.7197 36.826 30.7197C36.0394 30.7197 35.466 30.9464 35.2393 31.3331C35.0127 31.7197 35.106 32.3331 35.506 33.0131C35.9727 33.8264 36.106 34.7864 35.8527 35.6931C35.6127 36.6131 35.026 37.3731 34.1993 37.8397L31.8927 39.1597C31.386 39.4397 30.8393 39.5864 30.2794 39.5864ZM25.9993 34.6531C27.186 34.6531 28.2927 35.3997 29.0527 36.7197L29.1993 36.9731C29.3593 37.2531 29.626 37.4531 29.946 37.5331C30.266 37.6131 30.586 37.5731 30.8527 37.4131L33.1594 36.0797C33.506 35.8797 33.7727 35.5464 33.8793 35.1464C33.986 34.7464 33.9327 34.3331 33.7327 33.9864C32.9727 32.6797 32.8794 31.3331 33.466 30.3064C34.0527 29.2797 35.266 28.6931 36.786 28.6931C37.6393 28.6931 38.3193 28.0131 38.3193 27.1597V24.8131C38.3193 23.9731 37.6393 23.2797 36.786 23.2797C35.266 23.2797 34.0527 22.6931 33.466 21.6664C32.8794 20.6397 32.9727 19.2931 33.7327 17.9864C33.9327 17.6397 33.986 17.2264 33.8793 16.8264C33.7727 16.4264 33.5193 16.1064 33.1727 15.8931L30.866 14.5731C30.2927 14.2264 29.5327 14.4264 29.186 15.0131L29.0393 15.2664C28.2793 16.5864 27.1727 17.3331 25.986 17.3331C24.7993 17.3331 23.6927 16.5864 22.9327 15.2664L22.786 14.9997C22.4527 14.4397 21.706 14.2397 21.1327 14.5731L18.826 15.9064C18.4793 16.1064 18.2127 16.4397 18.106 16.8397C17.9993 17.2397 18.0527 17.6531 18.2527 17.9997C19.0127 19.3064 19.106 20.6531 18.5193 21.6797C17.9327 22.7064 16.7193 23.2931 15.1993 23.2931C14.346 23.2931 13.666 23.9731 13.666 24.8264V27.1731C13.666 28.0131 14.346 28.7064 15.1993 28.7064C16.7193 28.7064 17.9327 29.2931 18.5193 30.3197C19.106 31.3464 19.0127 32.6931 18.2527 33.9997C18.0527 34.3464 17.9993 34.7597 18.106 35.1597C18.2127 35.5597 18.466 35.8797 18.8127 36.0931L21.1193 37.4131C21.3993 37.5864 21.7327 37.6264 22.0393 37.5464C22.3593 37.4664 22.626 37.2531 22.7993 36.9731L22.946 36.7197C23.706 35.4131 24.8127 34.6531 25.9993 34.6531Z" fill="white"/>
</svg>
