<svg width="215" height="33" viewBox="0 0 215 33" fill="none" xmlns="http://www.w3.org/2000/svg">
<g clip-path="url(#clip0_85_13908)">
<path d="M38.9112 31.8665C47.5379 31.8665 54.5313 24.8326 54.5313 16.1559C54.5313 7.47919 47.5379 0.445313 38.9112 0.445313C30.2844 0.445313 23.291 7.47919 23.291 16.1559C23.291 24.8326 30.2844 31.8665 38.9112 31.8665Z" fill="black"/>
<path d="M7.72852 16.1554C7.72852 24.8323 14.7199 31.866 23.3487 31.866L23.3487 0.445313C14.7221 0.445313 7.72852 7.47956 7.72852 16.1554Z" fill="black"/>
<path d="M0 16.1545C0 21.9698 3.14343 27.0463 7.81035 29.7632L7.81035 2.54688C3.14127 5.26315 0 10.3402 0 16.1545Z" fill="black"/>
<path d="M214.676 2.9262C214.487 2.46889 214.205 2.05597 213.85 1.71332C213.494 1.37667 213.076 1.11229 212.62 0.934591C211.653 0.558261 210.581 0.558261 209.614 0.934591C209.157 1.11187 208.739 1.37628 208.382 1.71332C208.026 2.05533 207.746 2.46847 207.558 2.9262C207.354 3.41587 207.252 3.94226 207.256 4.47329C207.256 5.21161 207.429 5.87383 207.775 6.45998C208.107 7.03317 208.591 7.50206 209.172 7.81429C209.773 8.12652 210.44 8.28942 211.116 8.28942C211.792 8.28942 212.458 8.12652 213.059 7.81429C213.641 7.50172 214.126 7.03297 214.459 6.45998C214.807 5.8742 214.981 5.21197 214.981 4.47329C214.985 3.94203 214.882 3.41548 214.676 2.9262ZM213.92 5.74896C213.782 6.11798 213.569 6.45377 213.294 6.7347C213.019 7.01564 212.689 7.23551 212.325 7.38015C211.943 7.53556 211.534 7.61386 211.121 7.6106C210.713 7.61319 210.308 7.53489 209.929 7.38015C209.569 7.23474 209.241 7.01888 208.964 6.74504C208.685 6.46099 208.466 6.12192 208.322 5.74896C208.162 5.3431 208.082 4.9099 208.086 4.47329C208.082 4.04585 208.162 3.62185 208.322 3.226C208.467 2.86177 208.686 2.53188 208.964 2.25723C209.242 1.98914 209.57 1.77937 209.929 1.64014C210.371 1.46991 210.844 1.39581 211.317 1.42273C211.789 1.44965 212.251 1.57697 212.671 1.79633C213.127 2.04465 213.503 2.41833 213.755 2.87377C214.019 3.34014 214.15 3.87331 214.15 4.47329C214.155 4.90943 214.077 5.34244 213.92 5.74896Z" fill="black"/>
<path d="M212.594 4.19488C212.715 4.00686 212.779 3.78687 212.777 3.56249C212.785 3.34403 212.743 3.12669 212.653 2.92739C212.571 2.7595 212.434 2.62476 212.266 2.54513C212.082 2.45552 211.885 2.3951 211.683 2.36601C211.416 2.32981 211.148 2.31339 210.879 2.31686H209.646V6.35796H210.476V4.81633H211.244L212.06 6.35796L212.97 6.35796L212.044 4.63722C212.267 4.54773 212.458 4.3938 212.594 4.19488ZM211.735 4.02668C211.594 4.12643 211.368 4.1763 211.057 4.1763H210.477V2.9749H211.013C211.314 2.9749 211.545 3.01841 211.706 3.10542C211.867 3.19243 211.947 3.34789 211.948 3.57179C211.948 3.77493 211.877 3.92601 211.735 4.02504V4.02668Z" fill="black"/>
<path d="M76.7472 14.0556L74.1018 13.5395C69.5796 12.5937 68.1716 11.4758 68.1716 9.02547C68.1716 6.70402 69.9633 5.24267 73.6325 5.24267C78.456 5.24267 80.1177 7.09121 80.3312 10.3585H85.92C85.707 4.59774 82.0802 0.556641 73.5474 0.556641C66.2514 0.556641 62.2836 4.12482 62.2836 9.1975C62.2836 14.7431 66.1663 17.3654 72.0543 18.4811L74.614 18.9972C79.2646 19.943 80.8429 21.0177 80.8429 23.4249C80.8429 26.305 78.6668 27.8526 74.6991 27.8526C70.4755 27.8526 67.2741 26.5633 67.1901 21.7484H61.5156C61.5584 28.7985 66.4221 32.5387 74.5284 32.5387C82.123 32.5387 86.8159 29.1857 86.8159 23.124C86.8159 18.2681 83.9147 15.4743 76.7472 14.0556Z" fill="black"/>
<path d="M99.1354 9.1543C92.6073 9.1543 88.2559 13.7961 88.2559 20.7615C88.2559 27.8548 92.7358 32.3688 99.2205 32.3688C104.511 32.3688 108.351 29.4887 109.46 24.9747L104.298 24.9747C103.485 26.9521 101.823 28.1557 99.2633 28.1557C96.1486 28.1557 93.9303 26.3934 93.546 22.4381L110.015 22.4381V21.1487C110.015 14.0981 105.876 9.1543 99.1354 9.1543ZM93.5889 18.6564C94.101 15.0024 96.2342 13.3685 99.0926 13.3685C102.29 13.3685 104.213 15.5179 104.639 18.6564H93.5889Z" fill="black"/>
<path d="M131.257 15.8206C131.257 11.8226 128.656 9.1582 122.084 9.1582C115.215 9.1582 112.485 12.0388 112.186 16.7243H117.477C117.69 14.0163 118.97 13.1993 122.042 13.1993C125.156 13.1993 126.052 14.2314 126.052 15.9505C126.052 17.5844 124.986 18.2294 122.938 18.4871L119.61 18.788C113.38 19.3887 111.162 22.01 111.162 25.7092C111.162 30.0081 114.405 32.3716 119.098 32.3716C122.34 32.3716 124.729 31.2111 126.18 29.1496C126.265 30.2244 126.436 31.2559 126.776 31.8577H132.152C131.556 30.9982 131.256 29.2365 131.256 27.6452L131.257 15.8206ZM126.054 23.0836C126.054 26.9527 123.236 28.5003 120.38 28.5003C117.905 28.5003 116.668 27.3399 116.668 25.4913C116.668 23.7286 117.65 22.6517 120.636 22.3098L123.537 21.9658C124.689 21.8369 125.499 21.5791 126.054 21.0631V23.0836Z" fill="black"/>
<path d="M144.083 27.8548C140.968 27.8548 138.707 25.6196 138.707 20.7615C138.707 15.9035 140.883 13.6683 144.083 13.6683C146.472 13.6683 148.434 14.915 148.946 17.6663L154.322 17.6663C153.682 12.4647 149.842 9.1543 144.083 9.1543C137.512 9.1543 133.203 13.6683 133.203 20.7615C133.203 27.8548 137.555 32.3688 144.083 32.3688C149.714 32.3688 153.81 29.0158 154.407 23.5991L149.032 23.5991C148.605 26.5223 146.514 27.8548 144.083 27.8548Z" fill="black"/>
<path d="M161.829 1.24414L156.453 1.24414V31.8528H161.829V1.24414Z" fill="black"/>
<path d="M179.22 22.0963C179.22 26.0511 176.66 27.6845 174.313 27.6845C171.54 27.6845 170.175 26.3089 170.175 23.4719V9.67211H164.799V24.3746C164.799 29.6625 167.914 32.3705 172.479 32.3705C175.636 32.3705 177.939 30.7798 179.39 28.6303V31.8523H184.593V9.66992L179.217 9.66992L179.22 22.0963Z" fill="black"/>
<path d="M199.859 9.1541C196.787 9.1541 194.525 10.4008 193.03 12.5503V1.24609L187.654 1.24609V31.8542H192.817V28.6732C194.31 30.9946 196.656 32.3702 199.857 32.3702C205.915 32.3702 209.712 27.8136 209.712 20.763C209.712 13.7123 205.917 9.1541 199.859 9.1541ZM198.579 27.8955C195.08 27.8955 192.904 25.4452 192.904 20.7592C192.904 16.0731 195.08 13.6228 198.579 13.6228C202.077 13.6228 204.253 15.9016 204.253 20.5871C204.253 25.2726 202.077 27.8955 198.579 27.8955Z" fill="black"/>
</g>
<defs>
<clipPath id="clip0_85_13908">
<rect width="215" height="32.1104" fill="white" transform="translate(0 0.445312)"/>
</clipPath>
</defs>
</svg>
