<svg width="146" height="85" viewBox="0 0 146 85" fill="none" xmlns="http://www.w3.org/2000/svg">
<path d="M104.004 84.5C127.025 84.5 145.687 65.696 145.687 42.5C145.687 19.304 127.025 0.5 104.004 0.5C80.9826 0.5 62.3203 19.304 62.3203 42.5C62.3203 65.696 80.9826 84.5 104.004 84.5Z" fill="black"/>
<path d="M20.9961 42.4993C20.9961 65.6961 39.606 84.5 62.574 84.5L62.574 0.5C39.6117 0.5 20.9961 19.3054 20.9961 42.4993Z" fill="black"/>
<path d="M0.3125 42.4993C0.3125 58.0125 8.72191 71.5547 21.207 78.8022L21.207 6.19922C8.71611 13.4452 0.3125 26.9889 0.3125 42.4993Z" fill="black"/>
</svg>
