<svg width="40" height="40" viewBox="0 0 40 40" fill="none" xmlns="http://www.w3.org/2000/svg">
<path d="M24.9987 37.9154H14.9987C5.9487 37.9154 2.08203 34.0487 2.08203 24.9987V14.9987C2.08203 5.9487 5.9487 2.08203 14.9987 2.08203H24.9987C34.0487 2.08203 37.9154 5.9487 37.9154 14.9987V24.9987C37.9154 34.0487 34.0487 37.9154 24.9987 37.9154ZM14.9987 4.58203C7.31536 4.58203 4.58203 7.31536 4.58203 14.9987V24.9987C4.58203 32.682 7.31536 35.4154 14.9987 35.4154H24.9987C32.682 35.4154 35.4154 32.682 35.4154 24.9987V14.9987C35.4154 7.31536 32.682 4.58203 24.9987 4.58203H14.9987Z" fill="#F24822"/>
<path d="M29.8317 16.333C29.7984 16.333 29.7484 16.333 29.7151 16.333C23.9484 15.7663 18.2151 15.533 12.5318 16.1163L10.2984 16.333C9.5984 16.3997 8.99841 15.8997 8.93174 15.2163C8.86508 14.533 9.36507 13.9163 10.0484 13.8497L12.2817 13.633C18.1317 13.0497 24.0317 13.2663 29.9651 13.8497C30.6484 13.9163 31.1484 14.533 31.0817 15.2163C31.0151 15.8497 30.4651 16.333 29.8317 16.333Z" fill="#F24822"/>
<path d="M23.8152 15.2323C23.2152 15.2323 22.6818 14.799 22.5818 14.199L22.3485 12.7823C22.3152 12.5489 22.2485 12.1823 22.1818 12.0989C22.1818 12.0989 22.0152 11.9989 21.4152 11.9989H18.5485C17.9318 11.9989 17.7652 12.0989 17.7652 12.0989C17.7318 12.1656 17.6652 12.5323 17.6318 12.7656L17.3985 14.199C17.2818 14.8823 16.6318 15.3323 15.9652 15.2323C15.2818 15.1156 14.8319 14.4656 14.9319 13.7989L15.1652 12.3656C15.3485 11.2989 15.6485 9.51562 18.5485 9.51562H21.4152C24.3319 9.51562 24.6318 11.3823 24.7985 12.3823L25.0318 13.7989C25.1485 14.4823 24.6818 15.1323 24.0152 15.2323C23.9652 15.2323 23.8818 15.2323 23.8152 15.2323Z" fill="#F24822"/>
<path d="M23.4994 30.5152H16.4827C12.266 30.5152 12.0827 27.9819 11.966 26.2986L11.2493 15.2819C11.1993 14.5986 11.7327 13.9986 12.416 13.9486C13.116 13.8986 13.6993 14.4319 13.7493 15.1152L14.466 26.1152C14.5827 27.7486 14.5993 27.9986 16.4827 27.9986H23.4994C25.3827 27.9986 25.3993 27.7486 25.516 26.1152L26.2327 15.1152C26.2827 14.4319 26.8493 13.8986 27.566 13.9486C28.2493 13.9986 28.7827 14.5819 28.7327 15.2819L28.016 26.2819C27.8993 27.9819 27.7327 30.5152 23.4994 30.5152Z" fill="#F24822"/>
</svg>
