<svg width="42" height="42" viewBox="0 0 42 42" fill="none" xmlns="http://www.w3.org/2000/svg">
<g clip-path="url(#clip0_2005_8992)">
<path d="M41.5 21.1253C41.5 9.73424 32.3218 0.5 21 0.5C9.67815 0.5 0.5 9.73424 0.5 21.1253C0.5 31.42 7.99655 39.9527 17.7969 41.5V27.0873H12.5918V21.1253H17.7969V16.5813C17.7969 11.4121 20.8574 8.55675 25.54 8.55675C27.7829 8.55675 30.1289 8.95959 30.1289 8.95959V14.0353H27.5439C24.9973 14.0353 24.2031 15.6252 24.2031 17.2563V21.1253H29.8887L28.9798 27.0873H24.2031V41.5C34.0034 39.9527 41.5 31.42 41.5 21.1253Z" fill="#1877F2"/>
</g>
<defs>
<clipPath id="clip0_2005_8992">
<rect width="41" height="41" fill="white" transform="translate(0.5 0.5)"/>
</clipPath>
</defs>
</svg>
