<svg width="70" height="17" viewBox="0 0 70 17" fill="none" xmlns="http://www.w3.org/2000/svg">
<g clip-path="url(#clip0_310_9282)">
<path d="M23.6636 12.9978V9.26257H20.3728V12.9978H18.6973V4.14062H20.3728V7.78387H23.6636V4.14062H25.3392V12.9978H23.6636Z" fill="black"/>
<path d="M31.4835 12.9985H30.1531L30.0324 12.5603C29.4574 12.9334 28.7863 13.1321 28.1005 13.1323C26.9142 13.1323 26.4082 12.3211 26.4082 11.2037C26.4082 9.88721 26.9812 9.38205 28.2999 9.38205H29.8582V8.70291C29.8582 7.9853 29.6588 7.73272 28.6199 7.73272C28.0157 7.7369 27.4134 7.80135 26.8221 7.92508L26.6227 6.68893C27.3475 6.48864 28.0958 6.3857 28.8478 6.38281C30.8853 6.38281 31.4851 7.10042 31.4851 8.72466L31.4835 12.9985ZM29.8582 10.5513H28.6601C28.1273 10.5513 27.9815 10.6968 27.9815 11.1903C27.9815 11.6419 28.1273 11.8427 28.635 11.8427C29.065 11.8357 29.4862 11.7207 29.8598 11.5081L29.8582 10.5513Z" fill="black"/>
<path d="M34.6272 13.1296C33.8666 13.1171 33.1121 12.9914 32.3887 12.7565L32.6149 11.5204C33.2433 11.6999 33.8932 11.7938 34.5468 11.7997C35.2656 11.7997 35.3728 11.6324 35.3728 11.1474C35.3728 10.7492 35.2924 10.5485 34.2402 10.2959C32.6551 9.90952 32.4691 9.51141 32.4691 8.26187C32.4691 6.9588 33.0421 6.38672 34.8936 6.38672C35.5486 6.38732 36.2013 6.46309 36.8389 6.61254L36.6714 7.90223C36.0824 7.79371 35.4857 7.73163 34.8869 7.71655C34.1815 7.71655 34.0609 7.88383 34.0609 8.27525C34.0609 8.7938 34.1011 8.83395 34.9808 9.05977C36.7971 9.53984 36.9713 9.77905 36.9713 11.1022C36.9713 12.3584 36.5843 13.1296 34.6272 13.1296Z" fill="black"/>
<path d="M41.8058 13.0013V8.48491C41.8058 8.13865 41.66 7.96635 41.2863 7.96635C40.8876 7.96635 40.1805 8.20556 39.594 8.51167V13.0013H37.9688V3.87816L39.594 3.65234V7.01624C40.3298 6.63919 41.1387 6.42576 41.9649 6.39063C43.044 6.39063 43.4294 7.14838 43.4294 8.30592V13.0013H41.8058Z" fill="black"/>
<path d="M44.627 5.60562V3.73047H46.2522V5.60562H44.627ZM44.627 12.9992V6.52228H46.2522V12.9992H44.627Z" fill="black"/>
<path d="M47.3887 6.57771C47.3887 4.95515 48.3337 4.01172 50.5454 4.01172C51.358 4.01154 52.1677 4.10984 52.9565 4.30445L52.7722 5.75305C52.0538 5.61713 51.3251 5.54159 50.594 5.52723C49.4345 5.52723 49.0625 5.92701 49.0625 6.86542V10.2695C49.0625 11.2129 49.4362 11.6077 50.594 11.6077C51.3251 11.5933 52.0538 11.5178 52.7722 11.3818L52.9582 12.8321C52.1693 13.0267 51.3597 13.125 50.5471 13.1248C48.3354 13.1248 47.3903 12.1814 47.3903 10.5588L47.3887 6.57771Z" fill="black"/>
<path d="M56.2882 13.1279C54.063 13.1279 53.4648 11.9051 53.4648 10.5753V8.93933C53.4648 7.6095 54.0647 6.38672 56.2882 6.38672C58.5116 6.38672 59.1115 7.6095 59.1115 8.93933V10.5753C59.1064 11.9051 58.5083 13.1279 56.2882 13.1279ZM56.2882 7.7751C55.4219 7.7751 55.0901 8.1615 55.0901 8.89249V10.6288C55.0901 11.3598 55.4252 11.7462 56.2882 11.7462C57.1511 11.7462 57.4862 11.3598 57.4862 10.6288V8.8858C57.4828 8.15481 57.1494 7.76841 56.2882 7.76841V7.7751Z" fill="black"/>
<path d="M63.4245 7.87714C62.828 8.14697 62.2532 8.46238 61.7054 8.82056V13.0024H60.0801V6.52054H61.4524L61.5596 7.23815C62.0882 6.88078 62.6617 6.59451 63.2653 6.38672L63.4245 7.87714Z" fill="black"/>
<path d="M69.5865 10.8412C69.5865 12.2781 68.9464 13.1279 67.4418 13.1279C66.8596 13.1218 66.2793 13.059 65.7093 12.9405V15.6169L64.084 15.8428V6.51887H65.3758L65.5434 7.06419C66.1356 6.62276 66.8552 6.38504 67.5943 6.38673C68.8995 6.38673 69.5915 7.15786 69.5915 8.6349L69.5865 10.8412ZM65.711 11.5722C66.1839 11.6761 66.6661 11.7322 67.1503 11.7395C67.7367 11.7395 67.9629 11.4602 67.9629 10.8747V8.59141C67.9629 8.05947 67.7635 7.76674 67.1637 7.76674C66.6257 7.78608 66.1116 7.99327 65.711 8.3522V11.5722Z" fill="black"/>
<path d="M6.39615 0.398438L-0.0078125 4.08684V4.08851V12.944L2.39828 14.3307V5.47355L6.39615 3.1685V0.398438Z" fill="black"/>
<path d="M8.9535 0.398438V7.45241H6.39828V4.8195L3.99219 6.20621V15.2441L6.39828 16.6341V9.60021H8.9535V12.2147L11.3596 10.8297V1.78514L8.9535 0.398438Z" fill="black"/>
<path d="M8.94727 16.6393L15.3512 12.9509V12.9476V4.09374L12.9451 2.70703V11.5642L8.94727 13.8693V16.6393Z" fill="black"/>
</g>
<defs>
<clipPath id="clip0_310_9282">
<rect width="69.5958" height="16.239" fill="white" transform="translate(0 0.390625)"/>
</clipPath>
</defs>
</svg>
