<svg width="88" height="88" viewBox="0 0 88 88" fill="none" xmlns="http://www.w3.org/2000/svg">
<g filter="url(#filter0_d_310_7039)">
<g clip-path="url(#clip0_310_7039)">
<path d="M64.5 42.1253C64.5 30.7342 55.3218 21.5 44 21.5C32.6782 21.5 23.5 30.7342 23.5 42.1253C23.5 52.42 30.9966 60.9527 40.7969 62.5V48.0873H35.5918V42.1253H40.7969V37.5813C40.7969 32.4121 43.8574 29.5568 48.54 29.5568C50.7829 29.5568 53.1289 29.9596 53.1289 29.9596V35.0353H50.5439C47.9973 35.0353 47.2031 36.6252 47.2031 38.2563V42.1253H52.8887L51.9798 48.0873H47.2031V62.5C57.0034 60.9527 64.5 52.42 64.5 42.1253Z" fill="#1877F2"/>
</g>
<rect x="4.43" y="2.43" width="79.14" height="79.14" rx="39.57" stroke="#E6E6E6" stroke-width="0.86" shape-rendering="crispEdges"/>
</g>
<defs>
<filter id="filter0_d_310_7039" x="0" y="0" width="88" height="88" filterUnits="userSpaceOnUse" color-interpolation-filters="sRGB">
<feFlood flood-opacity="0" result="BackgroundImageFix"/>
<feColorMatrix in="SourceAlpha" type="matrix" values="0 0 0 0 0 0 0 0 0 0 0 0 0 0 0 0 0 0 127 0" result="hardAlpha"/>
<feOffset dy="2"/>
<feGaussianBlur stdDeviation="2"/>
<feComposite in2="hardAlpha" operator="out"/>
<feColorMatrix type="matrix" values="0 0 0 0 0 0 0 0 0 0 0 0 0 0 0 0 0 0 0.25 0"/>
<feBlend mode="normal" in2="BackgroundImageFix" result="effect1_dropShadow_310_7039"/>
<feBlend mode="normal" in="SourceGraphic" in2="effect1_dropShadow_310_7039" result="shape"/>
</filter>
<clipPath id="clip0_310_7039">
<rect width="41" height="41" fill="white" transform="translate(23.5 21.5)"/>
</clipPath>
</defs>
</svg>
