<svg width="122" height="75" viewBox="0 0 122 75" fill="none" xmlns="http://www.w3.org/2000/svg">
<path d="M0.5 0H84C104.711 0 121.5 16.7893 121.5 37.5V37.5C121.5 58.2107 104.711 75 84 75H0.5V0Z" fill="#E6E8F6"/>
<path d="M60.1 48.25H55.9C51.99 48.25 50.25 46.51 50.25 42.6V38.4C50.25 34.49 51.99 32.75 55.9 32.75H60.1C64.01 32.75 65.75 34.49 65.75 38.4V42.6C65.75 46.51 64.01 48.25 60.1 48.25ZM55.9 34.25C52.8 34.25 51.75 35.3 51.75 38.4V42.6C51.75 45.7 52.8 46.75 55.9 46.75H60.1C63.2 46.75 64.25 45.7 64.25 42.6V38.4C64.25 35.3 63.2 34.25 60.1 34.25H55.9Z" fill="#0320F8"/>
<path d="M66.1 42.25H65C64.59 42.25 64.25 41.91 64.25 41.5V38.4C64.25 35.3 63.2 34.25 60.1 34.25H57C56.59 34.25 56.25 33.91 56.25 33.5V32.4C56.25 28.49 57.99 26.75 61.9 26.75H66.1C70.01 26.75 71.75 28.49 71.75 32.4V36.6C71.75 40.51 70.01 42.25 66.1 42.25ZM65.75 40.75H66.1C69.2 40.75 70.25 39.7 70.25 36.6V32.4C70.25 29.3 69.2 28.25 66.1 28.25H61.9C58.8 28.25 57.75 29.3 57.75 32.4V32.75H60.1C64.01 32.75 65.75 34.49 65.75 38.4V40.75Z" fill="#0320F8"/>
</svg>
