<svg width="32" height="33" viewBox="0 0 32 33" fill="none" xmlns="http://www.w3.org/2000/svg">
<path d="M29.7143 0.5H2.27857C1.02143 0.5 0 1.53571 0 2.80714V30.1929C0 31.4643 1.02143 32.5 2.27857 32.5H29.7143C30.9714 32.5 32 31.4643 32 30.1929V2.80714C32 1.53571 30.9714 0.5 29.7143 0.5ZM9.67143 27.9286H4.92857V12.6571H9.67857V27.9286H9.67143ZM7.3 10.5714C5.77857 10.5714 4.55 9.33571 4.55 7.82143C4.55 6.30714 5.77857 5.07143 7.3 5.07143C8.81429 5.07143 10.05 6.30714 10.05 7.82143C10.05 9.34286 8.82143 10.5714 7.3 10.5714ZM27.45 27.9286H22.7071V20.5C22.7071 18.7286 22.6714 16.45 20.2429 16.45C17.7714 16.45 17.3929 18.3786 17.3929 20.3714V27.9286H12.65V12.6571H17.2V14.7429H17.2643C17.9 13.5429 19.45 12.2786 21.7571 12.2786C26.5571 12.2786 27.45 15.4429 27.45 19.5571V27.9286Z" fill="#0965C1"/>
</svg>
