<svg width="101" height="101" viewBox="0 0 101 101" fill="none" xmlns="http://www.w3.org/2000/svg">
<path d="M36.9813 14.4297L36.9868 14.4252L36.9922 14.4206L43.5748 8.75463C47.4709 5.41512 53.5696 5.41512 57.4656 8.75463L64.0451 14.4179C64.0456 14.4184 64.0462 14.4189 64.0468 14.4194C64.4507 14.7721 65.103 15.0887 65.7315 15.3143C66.3631 15.5411 67.0614 15.7084 67.5827 15.7084H74.666C80.5565 15.7084 85.3328 20.4843 85.3328 26.3748V33.4584C85.3328 33.9851 85.5133 34.6869 85.7501 35.3167C85.9865 35.9455 86.3132 36.5932 86.6625 36.9936C86.6633 36.9944 86.664 36.9953 86.6647 36.9961L92.2859 43.5748L92.2864 43.5754C95.6259 47.4715 95.6259 53.5701 92.2864 57.4662L92.2859 57.4668L86.6647 64.0455C86.664 64.0463 86.6633 64.0472 86.6625 64.048C86.3101 64.452 85.9938 65.1038 85.7683 65.7319C85.5416 66.3636 85.3743 67.0619 85.3743 67.5832V74.6668C85.3743 80.5573 80.5982 85.3332 74.7077 85.3332H67.6243C67.0982 85.3332 66.3968 85.5136 65.7695 85.7442C65.1406 85.9753 64.4972 86.2898 64.1007 86.6119L64.0952 86.6164L64.0898 86.621L57.5111 92.2837C57.5104 92.2844 57.5096 92.285 57.5089 92.2857C55.5213 93.9542 53.013 94.7916 50.5411 94.7916C48.0245 94.7916 45.5179 93.9525 43.5748 92.2869L36.9953 86.6237C36.9947 86.6232 36.9942 86.6228 36.9937 86.6223C36.5898 86.2695 35.9375 85.9529 35.3089 85.7272C34.6773 85.5005 33.979 85.3332 33.4577 85.3332H26.2493C20.3588 85.3332 15.5827 80.5573 15.5827 74.6668V67.5415C15.5827 67.0191 15.415 66.3305 15.1878 65.7085C14.9616 65.0892 14.6454 64.4504 14.2949 64.0484C14.294 64.0474 14.2932 64.0465 14.2923 64.0455L8.67286 57.4271C5.41373 53.5718 5.41373 47.4698 8.67286 43.6145L14.2923 36.9961C14.2932 36.9951 14.294 36.9941 14.2949 36.9931C14.6455 36.5912 14.9616 35.9523 15.1878 35.3331C15.415 34.7111 15.5827 34.0225 15.5827 33.5001V26.3748C15.5827 20.4843 20.3588 15.7084 26.2493 15.7084H33.4577C33.9838 15.7084 34.6852 15.528 35.3125 15.2974C35.9414 15.0662 36.5849 14.7518 36.9813 14.4297ZM40.4643 82.6283L40.4649 82.6289L47.0482 88.2955L47.0497 88.2968C48.0111 89.1175 49.3106 89.5103 50.5827 89.5103C51.8549 89.5103 53.1544 89.1175 54.1157 88.2968L54.1173 88.2955L60.6962 82.6326C60.6968 82.632 60.6975 82.6314 60.6982 82.6308C62.4468 81.1616 65.3744 80.0415 67.666 80.0415H74.7494C77.7338 80.0415 80.166 77.6096 80.166 74.6251V67.5415C80.166 65.2441 81.2483 62.3186 82.7528 60.5766L82.7545 60.5746L88.3795 53.9915L88.3797 53.9913C89.2003 53.0299 89.5931 51.7304 89.5931 50.4582C89.5931 49.186 89.2003 47.8865 88.3797 46.9252L88.3795 46.925L82.757 40.3449C82.7566 40.3444 82.7562 40.3439 82.7558 40.3434C81.2863 38.595 80.166 35.6669 80.166 33.375V26.2914C80.166 23.3069 77.7338 20.875 74.7494 20.875H67.666C65.4094 20.875 62.4425 19.792 60.7012 18.2881L60.7005 18.2876L54.1173 12.621L54.1157 12.6197C53.1544 11.799 51.8549 11.4062 50.5827 11.4062C49.3106 11.4062 48.0111 11.799 47.0497 12.6197L47.0482 12.621L40.4693 18.2839C40.4686 18.2845 40.4679 18.2851 40.4672 18.2857C38.7186 19.7549 35.791 20.875 33.4994 20.875H26.2493H25.7493V20.9396C22.9979 21.1931 20.8327 23.5171 20.8327 26.3331V33.4584C20.8327 35.7139 19.7505 38.6414 18.3253 40.3445C18.325 40.3449 18.3246 40.3453 18.3243 40.3457L12.7024 46.9669C12.7022 46.9671 12.702 46.9673 12.7018 46.9675C11.8824 47.9278 11.4889 49.2159 11.4889 50.4791C11.4889 51.7422 11.8824 53.0304 12.7018 53.9906C12.702 53.9908 12.7022 53.9911 12.7024 53.9913L18.325 60.6133C18.3252 60.6136 18.3255 60.6138 18.3257 60.6141C19.7934 62.36 20.8744 65.2878 20.8744 67.4998V74.6251C20.8744 77.6096 23.3066 80.0415 26.291 80.0415H33.4994C35.7968 80.0415 38.7223 81.1239 40.4643 82.6283Z" fill="#0320F8" stroke="white"/>
<path d="M52.2721 66.5611L52.249 66.538L52.2231 66.5181L46.871 62.4072L50.0918 58.2409L55.738 62.602L55.7473 62.6092L55.7569 62.6159C56.2758 62.9792 57.1324 63.2063 57.8353 63.2063H65.2519C65.8853 63.2063 66.5378 62.9356 67.0503 62.5646C67.5512 62.2019 68.0016 61.6821 68.1495 61.0944L72.8929 46.656C72.8931 46.6556 72.8932 46.6552 72.8933 46.6548C72.9656 46.4379 73.0065 46.2432 73.0208 46.0778C73.028 45.9952 73.0292 45.9132 73.0218 45.8354C73.0151 45.7654 72.9985 45.6652 72.9491 45.5663L72.9352 45.5384L72.9179 45.5125C72.7863 45.3151 72.5685 45.2057 72.3948 45.1455C72.1998 45.0779 71.9665 45.0396 71.7102 45.0396H63.9185C62.5651 45.0396 61.3269 44.4789 60.4208 43.4617C59.5579 42.4465 59.1428 41.0926 59.3299 39.6959L60.3262 33.4281C60.3965 33.1146 60.3119 32.8086 60.1932 32.5858C60.0764 32.3667 59.8682 32.1208 59.5767 32.0236L59.5395 32.0112L59.5008 32.0047C59.2955 31.9705 59.0721 31.9899 58.8881 32.0308C58.7252 32.0671 58.4821 32.1442 58.3151 32.3112L58.2808 32.3455L58.2537 32.3857L50.5743 43.8042L46.1963 40.8623L53.9166 29.4026L53.9179 29.4006C55.4517 27.0998 58.7051 26.0861 61.3294 27.0509L61.3375 27.0539L61.3457 27.0566C64.2686 28.018 66.1672 31.3501 65.5133 34.3502L65.5103 34.3644L65.508 34.3787L64.758 39.1282L64.6668 39.7062H65.2519H71.7102C74.0265 39.7062 76.031 40.685 77.2176 42.3686C78.3688 44.0195 78.6464 46.1815 77.9062 48.2462L77.9061 48.2461L77.902 48.2585L73.2353 62.4252L73.2292 62.4439L73.2245 62.4631C72.4073 65.8098 68.9098 68.498 65.2519 68.498H57.8353C57.0066 68.498 55.9626 68.369 54.9456 68.0565C53.9259 67.7431 52.9665 67.2555 52.2721 66.5611Z" fill="#0320F8" stroke="white"/>
<path d="M34.4431 62.9484L34.5299 63.2088L34.7961 63.2753C35.0244 63.3324 35.3291 63.3322 35.6169 63.332C35.6338 63.332 35.6506 63.332 35.6674 63.332H37.6257C37.6424 63.332 37.6593 63.332 37.6761 63.332C37.9639 63.3322 38.2687 63.3324 38.4969 63.2753L38.8757 63.1806V62.7903C38.8757 62.771 38.8784 62.7485 38.8861 62.6836C38.8881 62.667 38.8904 62.6476 38.8931 62.6248C38.9045 62.5284 38.9174 62.402 38.9174 62.2486V43.1654C38.9174 43.1503 38.9174 43.1348 38.9174 43.1192C38.9179 42.9145 38.9184 42.6706 38.85 42.4656L38.7632 42.2052L38.4969 42.1387C38.2687 42.0816 37.9639 42.0818 37.6761 42.082C37.6592 42.082 37.6424 42.082 37.6257 42.082H35.6674C35.6506 42.082 35.6338 42.082 35.617 42.082C35.3292 42.0818 35.0244 42.0816 34.7961 42.1387L34.4174 42.2334V42.6237C34.4174 42.643 34.4147 42.6655 34.407 42.7305C34.405 42.7471 34.4027 42.7664 34.4 42.7892C34.3886 42.8856 34.3757 43.0119 34.3757 43.1654V62.2486C34.3757 62.2637 34.3757 62.2792 34.3756 62.2948C34.3752 62.4995 34.3747 62.7434 34.4431 62.9484ZM37.584 68.582H35.6257C32.6947 68.582 31.0995 67.5644 30.2146 66.3275C29.3077 65.0597 29.084 63.4744 29.084 62.2486V43.1654C29.084 41.9396 29.3077 40.3543 30.2146 39.0865C31.0995 37.8496 32.6947 36.832 35.6257 36.832H37.584C40.5149 36.832 42.1102 37.8496 42.9951 39.0865C43.9019 40.3543 44.1257 41.9396 44.1257 43.1654V62.2486C44.1257 63.4744 43.9019 65.0597 42.9951 66.3275C42.1102 67.5644 40.5149 68.582 37.584 68.582Z" fill="#0320F8" stroke="white"/>
</svg>
