<svg width="101" height="101" viewBox="0 0 101 101" fill="none" xmlns="http://www.w3.org/2000/svg">
<path d="M75.5 30.332C75.25 30.2904 74.9583 30.2904 74.7083 30.332C68.9583 30.1237 64.375 25.4154 64.375 19.582C64.375 13.6237 69.1667 8.83203 75.125 8.83203C81.0833 8.83203 85.875 13.6654 85.875 19.582C85.8333 25.4154 81.25 30.1237 75.5 30.332Z" stroke="#0320F8" stroke-width="4.5" stroke-linecap="round" stroke-linejoin="round"/>
<path d="M71.209 60.666C76.9173 61.6244 83.209 60.6244 87.6257 57.666C93.5007 53.7494 93.5007 47.3327 87.6257 43.416C83.1673 40.4577 76.7923 39.4577 71.084 40.4577" stroke="#0320F8" stroke-width="4.5" stroke-linecap="round" stroke-linejoin="round"/>
<path d="M25.375 30.332C25.625 30.2904 25.9167 30.2904 26.1667 30.332C31.9167 30.1237 36.5 25.4154 36.5 19.582C36.5 13.6237 31.7083 8.83203 25.75 8.83203C19.7917 8.83203 15 13.6654 15 19.582C15.0417 25.4154 19.625 30.1237 25.375 30.332Z" stroke="#0320F8" stroke-width="4.5" stroke-linecap="round" stroke-linejoin="round"/>
<path d="M29.6667 60.666C23.9583 61.6244 17.6667 60.6244 13.25 57.666C7.375 53.7494 7.375 47.3327 13.25 43.416C17.7083 40.4577 24.0833 39.4577 29.7917 40.4577" stroke="#0320F8" stroke-width="4.5" stroke-linecap="round" stroke-linejoin="round"/>
<path d="M50.5 61.457C50.25 61.4154 49.9583 61.4154 49.7083 61.457C43.9583 61.2487 39.375 56.5404 39.375 50.707C39.375 44.7487 44.1667 39.957 50.125 39.957C56.0833 39.957 60.875 44.7904 60.875 50.707C60.8333 56.5404 56.25 61.2904 50.5 61.457Z" stroke="#0320F8" stroke-width="4.5" stroke-linecap="round" stroke-linejoin="round"/>
<path d="M38.375 74.582C32.5 78.4987 32.5 84.9154 38.375 88.832C45.0417 93.2904 55.9583 93.2904 62.625 88.832C68.5 84.9154 68.5 78.4987 62.625 74.582C56 70.1654 45.0417 70.1654 38.375 74.582Z" stroke="#0320F8" stroke-width="4.5" stroke-linecap="round" stroke-linejoin="round"/>
</svg>
