<svg width="16" height="20" viewBox="0 0 16 20" fill="none" xmlns="http://www.w3.org/2000/svg">
<path d="M15 5.625V14.375C15 17.875 14.125 18.75 10.625 18.75H5.375C1.875 18.75 1 17.875 1 14.375V5.625C1 2.125 1.875 1.25 5.375 1.25H10.625C14.125 1.25 15 2.125 15 5.625Z" stroke="#B8B8B8" stroke-width="1.5" stroke-linecap="round" stroke-linejoin="round"/>
<path d="M9.75 4.3125H6.25" stroke="#B8B8B8" stroke-width="1.5" stroke-linecap="round" stroke-linejoin="round"/>
<path d="M8.00078 16.2125C8.74982 16.2125 9.35703 15.6053 9.35703 14.8562C9.35703 14.1072 8.74982 13.5 8.00078 13.5C7.25175 13.5 6.64453 14.1072 6.64453 14.8562C6.64453 15.6053 7.25175 16.2125 8.00078 16.2125Z" stroke="#B8B8B8" stroke-width="1.5" stroke-linecap="round" stroke-linejoin="round"/>
</svg>
