<svg width="20" height="21" viewBox="0 0 20 21" fill="none" xmlns="http://www.w3.org/2000/svg">
<path d="M10.0589 18.8161C8.88389 18.8161 7.70056 18.3661 6.8089 17.4744L3.0339 13.6994C2.11723 12.7827 1.6339 11.5161 1.69223 10.2244L1.89223 6.05775C1.9839 4.06608 3.5589 2.49108 5.5589 2.39108L9.72556 2.19108C11.0172 2.14108 12.2839 2.61608 13.2006 3.53275L16.9756 7.30775C18.7672 9.09941 18.7672 12.0244 16.9756 13.8161L13.3172 17.4744C12.4172 18.3661 11.2422 18.8161 10.0589 18.8161ZM3.91723 12.8077L7.69223 16.5827C8.32556 17.2161 9.16723 17.5661 10.0589 17.5661C10.9506 17.5661 11.7922 17.2161 12.4256 16.5827L16.0839 12.9244C16.7172 12.2911 17.0672 11.4494 17.0672 10.5577C17.0672 9.66608 16.7172 8.82441 16.0839 8.19108L12.3089 4.41608C11.6422 3.74941 10.7172 3.39108 9.7839 3.44108L5.61723 3.64108C4.25889 3.69941 3.20056 4.75775 3.1339 6.10775L2.9339 10.2744C2.89223 11.2161 3.25056 12.1411 3.91723 12.8077Z" fill="#999999"/>
<path d="M7.91732 11.1237C6.42565 11.1237 5.20898 9.90703 5.20898 8.41536C5.20898 6.9237 6.42565 5.70703 7.91732 5.70703C9.40898 5.70703 10.6257 6.9237 10.6257 8.41536C10.6257 9.90703 9.40898 11.1237 7.91732 11.1237ZM7.91732 6.95703C7.11732 6.95703 6.45898 7.61536 6.45898 8.41536C6.45898 9.21536 7.11732 9.8737 7.91732 9.8737C8.71732 9.8737 9.37565 9.21536 9.37565 8.41536C9.37565 7.61536 8.71732 6.95703 7.91732 6.95703Z" fill="#999999"/>
</svg>
