<svg width="24" height="24" viewBox="0 0 24 24" fill="none" xmlns="http://www.w3.org/2000/svg">
<path fill-rule="evenodd" clip-rule="evenodd" d="M1.5 6C1.5 5.58579 1.83579 5.25 2.25 5.25H6C6.41421 5.25 6.75 5.58579 6.75 6C6.75 6.41421 6.41421 6.75 6 6.75H2.25C1.83579 6.75 1.5 6.41421 1.5 6Z" fill="black"/>
<path fill-rule="evenodd" clip-rule="evenodd" d="M6 1.5C6.41421 1.5 6.75 1.83579 6.75 2.25V17.25H21.75C22.1642 17.25 22.5 17.5858 22.5 18C22.5 18.4142 22.1642 18.75 21.75 18.75H6C5.58579 18.75 5.25 18.4142 5.25 18V2.25C5.25 1.83579 5.58579 1.5 6 1.5Z" fill="black"/>
<path fill-rule="evenodd" clip-rule="evenodd" d="M8.25 6C8.25 5.58579 8.58579 5.25 9 5.25H18C18.4142 5.25 18.75 5.58579 18.75 6V15C18.75 15.4142 18.4142 15.75 18 15.75C17.5858 15.75 17.25 15.4142 17.25 15V6.75H9C8.58579 6.75 8.25 6.41421 8.25 6Z" fill="black"/>
<path fill-rule="evenodd" clip-rule="evenodd" d="M18 17.25C18.4142 17.25 18.75 17.5858 18.75 18V21.75C18.75 22.1642 18.4142 22.5 18 22.5C17.5858 22.5 17.25 22.1642 17.25 21.75V18C17.25 17.5858 17.5858 17.25 18 17.25Z" fill="black"/>
</svg>
