<svg width="19" height="18" viewBox="0 0 19 18" fill="none" xmlns="http://www.w3.org/2000/svg">
<path d="M11.75 17.0625H7.25C3.1775 17.0625 1.4375 15.3225 1.4375 11.25V6.75C1.4375 2.6775 3.1775 0.9375 7.25 0.9375H8.75C9.0575 0.9375 9.3125 1.1925 9.3125 1.5C9.3125 1.8075 9.0575 2.0625 8.75 2.0625H7.25C3.7925 2.0625 2.5625 3.2925 2.5625 6.75V11.25C2.5625 14.7075 3.7925 15.9375 7.25 15.9375H11.75C15.2075 15.9375 16.4375 14.7075 16.4375 11.25V9.75C16.4375 9.4425 16.6925 9.1875 17 9.1875C17.3075 9.1875 17.5625 9.4425 17.5625 9.75V11.25C17.5625 15.3225 15.8225 17.0625 11.75 17.0625Z" fill="#0320F8"/>
<path d="M6.87549 13.2694C6.41799 13.2694 5.99799 13.1044 5.69049 12.8044C5.32299 12.4369 5.16549 11.9044 5.24799 11.3419L5.57049 9.08437C5.63049 8.64937 5.91549 8.08687 6.22299 7.77937L12.133 1.86937C13.6255 0.376875 15.1405 0.376875 16.633 1.86937C17.4505 2.68688 17.818 3.51938 17.743 4.35188C17.6755 5.02688 17.3155 5.68687 16.633 6.36187L10.723 12.2719C10.4155 12.5794 9.85299 12.8644 9.41799 12.9244L7.16049 13.2469C7.06299 13.2694 6.96549 13.2694 6.87549 13.2694ZM12.928 2.66438L7.01799 8.57438C6.87549 8.71688 6.71049 9.04687 6.68049 9.24187L6.35799 11.4994C6.32799 11.7169 6.37299 11.8969 6.48549 12.0094C6.59799 12.1219 6.77799 12.1669 6.99549 12.1369L9.25299 11.8144C9.44799 11.7844 9.78549 11.6194 9.92049 11.4769L15.8305 5.56687C16.318 5.07938 16.573 4.64438 16.6105 4.23938C16.6555 3.75188 16.4005 3.23438 15.8305 2.65688C14.6305 1.45687 13.8055 1.79438 12.928 2.66438Z" fill="#0320F8"/>
<path d="M15.3867 7.37075C15.3342 7.37075 15.2817 7.36325 15.2367 7.34825C13.2642 6.79325 11.6967 5.22575 11.1417 3.25325C11.0592 2.95325 11.2317 2.64575 11.5317 2.55575C11.8317 2.47325 12.1392 2.64575 12.2217 2.94575C12.6717 4.54325 13.9392 5.81075 15.5367 6.26075C15.8367 6.34325 16.0092 6.65825 15.9267 6.95825C15.8592 7.21325 15.6342 7.37075 15.3867 7.37075Z" fill="#0320F8"/>
</svg>
