<svg width="18" height="18" viewBox="0 0 18 18" fill="none" xmlns="http://www.w3.org/2000/svg">
<path d="M9 17.0625C4.5525 17.0625 0.9375 13.4475 0.9375 9C0.9375 4.5525 4.5525 0.9375 9 0.9375C9.3075 0.9375 9.5625 1.1925 9.5625 1.5C9.5625 1.8075 9.3075 2.0625 9 2.0625C5.175 2.0625 2.0625 5.175 2.0625 9C2.0625 12.825 5.175 15.9375 9 15.9375C12.825 15.9375 15.9375 12.825 15.9375 9C15.9375 8.6925 16.1925 8.4375 16.5 8.4375C16.8075 8.4375 17.0625 8.6925 17.0625 9C17.0625 13.4475 13.4475 17.0625 9 17.0625Z" fill="#0320F8"/>
<path d="M9.74812 8.81219C9.60562 8.81219 9.46312 8.75969 9.35063 8.64719C9.13313 8.42969 9.13313 8.06969 9.35063 7.85219L15.5006 1.70219C15.7181 1.48469 16.0781 1.48469 16.2956 1.70219C16.5131 1.91969 16.5131 2.27969 16.2956 2.49719L10.1456 8.64719C10.0331 8.75969 9.89062 8.81219 9.74812 8.81219Z" fill="#0320F8"/>
<path d="M16.5014 5.685C16.1939 5.685 15.9389 5.43 15.9389 5.1225V2.0625H12.8789C12.5714 2.0625 12.3164 1.8075 12.3164 1.5C12.3164 1.1925 12.5714 0.9375 12.8789 0.9375H16.5014C16.8089 0.9375 17.0639 1.1925 17.0639 1.5V5.1225C17.0639 5.43 16.8089 5.685 16.5014 5.685Z" fill="#0320F8"/>
</svg>
