<svg width="18" height="18" viewBox="0 0 18 18" fill="none" xmlns="http://www.w3.org/2000/svg">
<path d="M15.7488 5.04687C15.7338 5.04687 15.7113 5.04687 15.6888 5.04687C11.7213 4.64937 7.76128 4.49937 3.83878 4.89687L2.30878 5.04687C1.99378 5.07687 1.71628 4.85187 1.68628 4.53687C1.65628 4.22187 1.88128 3.95187 2.18878 3.92187L3.71878 3.77187C7.70878 3.36687 11.7513 3.52437 15.8013 3.92187C16.1088 3.95187 16.3338 4.22937 16.3038 4.53687C16.2813 4.82937 16.0338 5.04687 15.7488 5.04687Z" fill="#0320F8"/>
<path d="M6.37556 4.29C6.34556 4.29 6.31556 4.29 6.27806 4.2825C5.97806 4.23 5.76806 3.9375 5.82056 3.6375L5.98556 2.655C6.10556 1.935 6.27056 0.9375 8.01806 0.9375H9.98306C11.7381 0.9375 11.9031 1.9725 12.0156 2.6625L12.1806 3.6375C12.2331 3.945 12.0231 4.2375 11.7231 4.2825C11.4156 4.335 11.1231 4.125 11.0781 3.825L10.9131 2.85C10.8081 2.1975 10.7856 2.07 9.99056 2.07H8.02556C7.23056 2.07 7.21556 2.175 7.10306 2.8425L6.93056 3.8175C6.88556 4.095 6.64556 4.29 6.37556 4.29Z" fill="#0320F8"/>
<path d="M11.4058 17.0637H6.59084C3.97334 17.0637 3.86834 15.6162 3.78584 14.4462L3.29834 6.89365C3.27584 6.58615 3.51584 6.31616 3.82334 6.29366C4.13834 6.27866 4.40084 6.51116 4.42334 6.81866L4.91084 14.3712C4.99334 15.5112 5.02334 15.9387 6.59084 15.9387H11.4058C12.9808 15.9387 13.0108 15.5112 13.0858 14.3712L13.5733 6.81866C13.5958 6.51116 13.8658 6.27866 14.1733 6.29366C14.4808 6.31616 14.7208 6.57865 14.6983 6.89365L14.2108 14.4462C14.1283 15.6162 14.0233 17.0637 11.4058 17.0637Z" fill="#0320F8"/>
<path d="M10.2436 12.9375H7.74609C7.43859 12.9375 7.18359 12.6825 7.18359 12.375C7.18359 12.0675 7.43859 11.8125 7.74609 11.8125H10.2436C10.5511 11.8125 10.8061 12.0675 10.8061 12.375C10.8061 12.6825 10.5511 12.9375 10.2436 12.9375Z" fill="#0320F8"/>
<path d="M10.875 9.9375H7.125C6.8175 9.9375 6.5625 9.6825 6.5625 9.375C6.5625 9.0675 6.8175 8.8125 7.125 8.8125H10.875C11.1825 8.8125 11.4375 9.0675 11.4375 9.375C11.4375 9.6825 11.1825 9.9375 10.875 9.9375Z" fill="#0320F8"/>
</svg>
