<svg width="50" height="50" viewBox="0 0 50 50" fill="none" xmlns="http://www.w3.org/2000/svg">
<path d="M18.7487 22.3958C15.582 22.3958 13.0195 19.8333 13.0195 16.6667C13.0195 13.5 15.582 10.9375 18.7487 10.9375C21.9154 10.9375 24.4779 13.5 24.4779 16.6667C24.4779 19.8333 21.9154 22.3958 18.7487 22.3958ZM18.7487 14.0625C17.3112 14.0625 16.1445 15.2292 16.1445 16.6667C16.1445 18.1042 17.3112 19.2708 18.7487 19.2708C20.1862 19.2708 21.3529 18.1042 21.3529 16.6667C21.3529 15.2292 20.1862 14.0625 18.7487 14.0625Z" fill="black"/>
<path d="M31.2513 47.3952H18.7513C7.4388 47.3952 2.60547 42.5618 2.60547 31.2493V18.7493C2.60547 7.43685 7.4388 2.60352 18.7513 2.60352H27.0846C27.9388 2.60352 28.6471 3.31185 28.6471 4.16602C28.6471 5.02018 27.9388 5.72852 27.0846 5.72852H18.7513C9.14713 5.72852 5.73047 9.14518 5.73047 18.7493V31.2493C5.73047 40.8535 9.14713 44.2702 18.7513 44.2702H31.2513C40.8555 44.2702 44.2721 40.8535 44.2721 31.2493V20.8327C44.2721 19.9785 44.9805 19.2702 45.8346 19.2702C46.6888 19.2702 47.3971 19.9785 47.3971 20.8327V31.2493C47.3971 42.5618 42.5638 47.3952 31.2513 47.3952Z" fill="black"/>
<path d="M37.5 18.2285C37.2917 18.2285 37.1042 18.1868 36.8958 18.1035C36.3125 17.8743 35.9375 17.291 35.9375 16.666V4.16602C35.9375 3.31185 36.6458 2.60352 37.5 2.60352C38.3542 2.60352 39.0625 3.31185 39.0625 4.16602V12.8952L40.5625 11.3952C41.1667 10.791 42.1667 10.791 42.7708 11.3952C43.375 11.9993 43.375 12.9993 42.7708 13.6035L38.6042 17.7702C38.3125 18.0618 37.9167 18.2285 37.5 18.2285Z" fill="black"/>
<path d="M37.5013 18.2298C37.1055 18.2298 36.7096 18.084 36.3971 17.7715L32.2305 13.6048C31.6263 13.0007 31.6263 12.0007 32.2305 11.3965C32.8346 10.7923 33.8346 10.7923 34.4388 11.3965L38.6055 15.5632C39.2096 16.1673 39.2096 17.1673 38.6055 17.7715C38.293 18.084 37.8971 18.2298 37.5013 18.2298Z" fill="black"/>
<path d="M5.5639 41.041C5.0639 41.041 4.5639 40.791 4.27223 40.3535C3.79306 39.6452 3.98056 38.666 4.70973 38.1868L14.9806 31.291C17.2306 29.7702 20.3347 29.9577 22.3764 31.6868L23.0639 32.291C24.1056 33.1868 25.8764 33.1868 26.8972 32.291L35.5639 24.8535C37.7722 22.9577 41.2514 22.9577 43.4806 24.8535L46.8764 27.7702C47.5222 28.3327 47.6056 29.3118 47.0431 29.9785C46.4806 30.6243 45.5014 30.7077 44.8347 30.1452L41.4389 27.2285C40.3972 26.3327 38.6264 26.3327 37.5847 27.2285L28.9181 34.666C26.7097 36.5618 23.2306 36.5618 21.0014 34.666L20.3139 34.0618C19.3556 33.2493 17.7722 33.166 16.7097 33.8952L6.4389 40.791C6.16806 40.9577 5.85556 41.041 5.5639 41.041Z" fill="black"/>
</svg>
