<svg width="30" height="30" viewBox="0 0 30 30" fill="none" xmlns="http://www.w3.org/2000/svg">
<rect width="30" height="30" rx="15" fill="black"/>
<path fill-rule="evenodd" clip-rule="evenodd" d="M9 15C9 14.7239 9.22386 14.5 9.5 14.5H20.5C20.7761 14.5 21 14.7239 21 15C21 15.2761 20.7761 15.5 20.5 15.5H9.5C9.22386 15.5 9 15.2761 9 15Z" fill="white"/>
<path fill-rule="evenodd" clip-rule="evenodd" d="M15 9C15.2761 9 15.5 9.22386 15.5 9.5V20.5C15.5 20.7761 15.2761 21 15 21C14.7239 21 14.5 20.7761 14.5 20.5V9.5C14.5 9.22386 14.7239 9 15 9Z" fill="white"/>
</svg>
